<svg width="1066" height="203" viewBox="0 0 1066 203" fill="none" xmlns="http://www.w3.org/2000/svg">
<path d="M0.963068 231V12.8182H87.0426C103.52 12.8182 117.582 15.7656 129.23 21.6605C140.949 27.4844 149.862 35.7585 155.97 46.483C162.149 57.1364 165.239 69.6719 165.239 84.0895C165.239 98.5781 162.114 111.043 155.864 121.483C149.614 131.852 140.558 139.807 128.697 145.347C116.908 150.886 102.632 153.656 85.8707 153.656H28.2358V116.582H78.4134C87.2202 116.582 94.5355 115.375 100.359 112.96C106.183 110.545 110.516 106.923 113.357 102.094C116.268 97.2642 117.724 91.2628 117.724 84.0895C117.724 76.8452 116.268 70.7372 113.357 65.7656C110.516 60.794 106.148 57.0298 100.253 54.473C94.429 51.8452 87.0781 50.5312 78.2003 50.5312H47.0923V231H0.963068ZM118.79 131.71L173.016 231H122.092L69.0384 131.71H118.79ZM196.986 231V67.3636H242.369V231H196.986ZM219.784 46.2699C213.037 46.2699 207.249 44.0327 202.419 39.5582C197.661 35.0128 195.281 29.5795 195.281 23.2585C195.281 17.0085 197.661 11.6463 202.419 7.17188C207.249 2.62641 213.037 0.353682 219.784 0.353682C226.531 0.353682 232.284 2.62641 237.043 7.17188C241.872 11.6463 244.287 17.0085 244.287 23.2585C244.287 29.5795 241.872 35.0128 237.043 39.5582C232.284 44.0327 226.531 46.2699 219.784 46.2699ZM365.762 67.3636V101.455H267.218V67.3636H365.762ZM289.591 28.1591H334.974V180.716C334.974 184.906 335.613 188.173 336.892 190.517C338.17 192.79 339.946 194.388 342.218 195.311C344.562 196.234 347.261 196.696 350.315 196.696C352.446 196.696 354.576 196.518 356.707 196.163C358.838 195.737 360.471 195.418 361.608 195.205L368.745 228.976C366.473 229.686 363.277 230.503 359.157 231.426C355.038 232.42 350.031 233.024 344.136 233.237C333.199 233.663 323.61 232.207 315.372 228.869C307.204 225.531 300.848 220.347 296.302 213.315C291.757 206.284 289.52 197.406 289.591 186.682V28.1591ZM468.142 234.196C451.309 234.196 436.821 230.787 424.676 223.969C412.602 217.08 403.298 207.349 396.764 194.778C390.23 182.136 386.963 167.186 386.963 149.928C386.963 133.095 390.23 118.322 396.764 105.609C403.298 92.8963 412.495 82.9886 424.356 75.8864C436.288 68.7841 450.279 65.233 466.331 65.233C477.126 65.233 487.176 66.973 496.48 70.4531C505.855 73.8622 514.022 79.0114 520.983 85.9006C528.014 92.7898 533.483 101.455 537.389 111.895C541.295 122.264 543.248 134.409 543.248 148.33V160.794H405.074V132.669H500.528C500.528 126.135 499.108 120.347 496.267 115.304C493.426 110.261 489.484 106.32 484.441 103.479C479.47 100.567 473.681 99.1108 467.076 99.1108C460.187 99.1108 454.079 100.709 448.752 103.905C443.497 107.03 439.377 111.256 436.395 116.582C433.412 121.838 431.885 127.697 431.814 134.161V160.901C431.814 168.997 433.305 175.993 436.288 181.888C439.342 187.783 443.639 192.328 449.179 195.524C454.718 198.72 461.288 200.318 468.887 200.318C473.93 200.318 478.547 199.608 482.737 198.188C486.927 196.767 490.514 194.636 493.497 191.795C496.48 188.955 498.752 185.474 500.315 181.355L542.289 184.125C540.159 194.21 535.791 203.017 529.186 210.545C522.652 218.003 514.2 223.827 503.831 228.017C493.532 232.136 481.636 234.196 468.142 234.196ZM619.527 234.089C609.086 234.089 599.782 232.278 591.615 228.656C583.447 224.963 576.984 219.53 572.225 212.357C567.538 205.112 565.194 196.092 565.194 185.297C565.194 176.206 566.863 168.571 570.201 162.392C573.539 156.213 578.085 151.241 583.838 147.477C589.591 143.713 596.125 140.872 603.44 138.955C610.826 137.037 618.568 135.688 626.664 134.906C636.181 133.912 643.852 132.989 649.676 132.136C655.5 131.213 659.726 129.864 662.353 128.088C664.981 126.312 666.295 123.685 666.295 120.205V119.565C666.295 112.818 664.164 107.598 659.903 103.905C655.713 100.212 649.747 98.3651 642.005 98.3651C633.838 98.3651 627.339 100.176 622.51 103.798C617.68 107.349 614.484 111.824 612.922 117.222L570.947 113.812C573.078 103.869 577.268 95.2756 583.518 88.0312C589.768 80.7159 597.829 75.1051 607.701 71.1989C617.645 67.2216 629.15 65.233 642.218 65.233C651.309 65.233 660.01 66.2983 668.319 68.429C676.7 70.5597 684.122 73.8622 690.585 78.3366C697.119 82.8111 702.268 88.5639 706.032 95.5952C709.797 102.555 711.679 110.901 711.679 120.631V231H668.639V208.308H667.36C664.733 213.422 661.217 217.932 656.814 221.838C652.41 225.673 647.119 228.692 640.94 230.893C634.761 233.024 627.623 234.089 619.527 234.089ZM632.524 202.768C639.2 202.768 645.095 201.455 650.208 198.827C655.322 196.128 659.335 192.506 662.247 187.96C665.159 183.415 666.615 178.266 666.615 172.513V155.148C665.194 156.071 663.241 156.923 660.755 157.705C658.341 158.415 655.606 159.089 652.552 159.729C649.498 160.297 646.444 160.83 643.39 161.327C640.336 161.753 637.566 162.143 635.081 162.499C629.754 163.28 625.102 164.523 621.125 166.227C617.147 167.932 614.058 170.24 611.856 173.152C609.654 175.993 608.554 179.544 608.554 183.805C608.554 189.984 610.791 194.707 615.265 197.974C619.811 201.17 625.564 202.768 632.524 202.768ZM883.039 114.026L841.49 116.582C840.78 113.031 839.253 109.835 836.909 106.994C834.566 104.082 831.476 101.774 827.641 100.07C823.877 98.294 819.367 97.4062 814.111 97.4062C807.08 97.4062 801.15 98.8977 796.32 101.881C791.49 104.793 789.076 108.699 789.076 113.599C789.076 117.506 790.638 120.808 793.763 123.507C796.888 126.206 802.25 128.372 809.85 130.006L839.466 135.972C855.375 139.239 867.236 144.494 875.049 151.739C882.861 158.983 886.767 168.5 886.767 180.29C886.767 191.014 883.607 200.425 877.286 208.521C871.036 216.618 862.442 222.939 851.505 227.484C840.638 231.959 828.103 234.196 813.898 234.196C792.236 234.196 774.978 229.686 762.123 220.666C749.338 211.575 741.846 199.217 739.644 183.592L784.282 181.249C785.631 187.854 788.898 192.896 794.083 196.376C799.267 199.786 805.908 201.49 814.005 201.49C821.959 201.49 828.351 199.963 833.181 196.909C838.081 193.784 840.567 189.771 840.638 184.871C840.567 180.751 838.827 177.378 835.418 174.75C832.009 172.051 826.753 169.991 819.651 168.571L791.313 162.925C775.333 159.729 763.436 154.189 755.624 146.305C747.882 138.422 744.012 128.372 744.012 116.156C744.012 105.645 746.853 96.5895 752.534 88.9901C758.287 81.3906 766.348 75.5312 776.718 71.4119C787.158 67.2926 799.374 65.233 813.365 65.233C834.033 65.233 850.297 69.6009 862.158 78.3366C874.09 87.0724 881.05 98.9687 883.039 114.026ZM989.919 234.196C973.087 234.196 958.598 230.787 946.453 223.969C934.379 217.08 925.075 207.349 918.541 194.778C912.007 182.136 908.74 167.186 908.74 149.928C908.74 133.095 912.007 118.322 918.541 105.609C925.075 92.8963 934.273 82.9886 946.134 75.8864C958.065 68.7841 972.057 65.233 988.108 65.233C998.903 65.233 1008.95 66.973 1018.26 70.4531C1027.63 73.8622 1035.8 79.0114 1042.76 85.9006C1049.79 92.7898 1055.26 101.455 1059.17 111.895C1063.07 122.264 1065.03 134.409 1065.03 148.33V160.794H926.851V132.669H1022.31C1022.31 126.135 1020.88 120.347 1018.04 115.304C1015.2 110.261 1011.26 106.32 1006.22 103.479C1001.25 100.567 995.459 99.1108 988.854 99.1108C981.964 99.1108 975.857 100.709 970.53 103.905C965.274 107.03 961.155 111.256 958.172 116.582C955.189 121.838 953.662 127.697 953.591 134.161V160.901C953.591 168.997 955.082 175.993 958.065 181.888C961.119 187.783 965.416 192.328 970.956 195.524C976.496 198.72 983.065 200.318 990.665 200.318C995.707 200.318 1000.32 199.608 1004.51 198.188C1008.7 196.767 1012.29 194.636 1015.27 191.795C1018.26 188.955 1020.53 185.474 1022.09 181.355L1064.07 184.125C1061.94 194.21 1057.57 203.017 1050.96 210.545C1044.43 218.003 1035.98 223.827 1025.61 228.017C1015.31 232.136 1003.41 234.196 989.919 234.196Z" fill="white" fill-opacity="0.1"/>
</svg>
