<svg width="164" height="47" viewBox="0 0 164 47" fill="none" xmlns="http://www.w3.org/2000/svg">
<path d="M34.3563 22.8921L35.7407 20.4629C37.2236 17.8609 36.8744 14.6018 34.874 12.373L34.5112 11.9688C33.4228 10.7562 31.8703 10.0635 30.241 10.0635C28.168 10.0635 26.2563 11.1815 25.24 12.9882L13.2894 34.2327C12.6091 35.4421 13.483 36.9364 14.8706 36.9364H44.7281C46.3719 36.9364 47.1683 34.9252 45.9701 33.7998L34.3563 22.8921ZM34.3563 22.8921L30.6224 29.444C30.2997 30.0103 29.698 30.3599 29.0462 30.3599H26.669C25.2768 30.3599 24.4034 28.8565 25.0931 27.647L28.9495 20.8843C29.5307 19.865 30.9121 19.6573 31.7674 20.4606L34.3563 22.8921Z" stroke="white" stroke-width="3.09846"/>
<path d="M56.5619 18.8807V21.3249C57.5444 19.6955 58.9941 18.8807 60.9112 18.8807H62.8162V22.2595H61.019C59.2218 22.2595 58.0476 22.6669 57.4964 23.4816C56.9693 24.2963 56.6937 25.9977 56.6697 28.5857V35.0557H52.7158V18.8807H56.5619Z" fill="white"/>
<path d="M69.2865 18.8807V35.0557H65.3326V18.8807H69.2865ZM64.7575 14.136C64.7575 13.4172 64.9971 12.8181 65.4764 12.3388C65.9796 11.8356 66.5787 11.584 67.2736 11.584C67.9925 11.584 68.6036 11.8356 69.1068 12.3388C69.61 12.8181 69.8616 13.4172 69.8616 14.136C69.8616 14.831 69.61 15.43 69.1068 15.9333C68.6036 16.4125 67.9925 16.6522 67.2736 16.6522C66.6027 16.6522 66.0156 16.4005 65.5123 15.8973C65.0091 15.3941 64.7575 14.807 64.7575 14.136Z" fill="white"/>
<path d="M71.3999 22.2595V18.8807H73.5566V14.172H77.5464V18.8807H81.4644V22.2595H77.5464V30.5986C77.5464 31.006 77.6183 31.2935 77.7621 31.4613C77.9059 31.6051 78.1815 31.677 78.5888 31.677H81.4644V35.0557H78.5888C76.7197 35.0557 75.4137 34.7562 74.6709 34.1571C73.928 33.5341 73.5566 32.3479 73.5566 30.5986V22.2595H71.3999Z" fill="white"/>
<path d="M82.397 27.0042C82.397 24.4881 83.1398 22.4512 84.6255 20.8936C86.1352 19.312 88.232 18.5213 90.9158 18.5213C93.5038 18.5213 95.5047 19.2881 96.9185 20.8217C98.3324 22.3314 99.0393 24.3203 99.0393 26.7885C99.0393 27.2438 99.0153 27.7231 98.9674 28.2263H86.3868C86.4827 29.4724 86.938 30.4668 87.7527 31.2097C88.5674 31.9286 89.6338 32.288 90.9518 32.288C91.5269 32.288 92.0541 32.2161 92.5333 32.0723C93.0126 31.9046 93.372 31.7129 93.6117 31.4972C93.8752 31.2816 94.0909 31.0659 94.2587 30.8502C94.4264 30.6346 94.5342 30.4548 94.5822 30.3111L94.654 30.0594H98.7158C98.6918 30.2032 98.6439 30.3949 98.572 30.6346C98.5001 30.8742 98.2844 31.3055 97.925 31.9286C97.5895 32.5516 97.1582 33.1027 96.631 33.582C96.1278 34.0373 95.3729 34.4567 94.3665 34.8401C93.36 35.2235 92.2098 35.4152 90.9158 35.4152C88.3278 35.4152 86.255 34.6603 84.6974 33.1507C83.1638 31.617 82.397 29.5682 82.397 27.0042ZM86.3868 25.3867H95.1213C95.1213 25.3627 95.1213 25.3268 95.1213 25.2788C95.1213 24.2245 94.7259 23.3618 93.9352 22.6908C93.1444 21.9959 92.1499 21.6484 90.9518 21.6484C89.6578 21.6484 88.6034 22.0079 87.7886 22.7268C86.9979 23.4217 86.5306 24.3083 86.3868 25.3867Z" fill="white"/>
<path d="M100.55 30.7424C100.55 27.2678 104.372 25.2788 112.016 24.7756C112.208 24.7516 112.352 24.7397 112.447 24.7397V24.5959C112.447 22.559 111.297 21.5406 108.997 21.5406C108.35 21.5406 107.787 21.6125 107.307 21.7563C106.828 21.9001 106.481 22.0678 106.265 22.2595C106.049 22.4512 105.87 22.6549 105.726 22.8706C105.606 23.0623 105.534 23.23 105.51 23.3738V23.5894H101.341C101.341 23.4457 101.353 23.2659 101.376 23.0503C101.424 22.8106 101.592 22.4033 101.88 21.8282C102.191 21.253 102.587 20.7378 103.066 20.2825C103.545 19.8273 104.3 19.4199 105.33 19.0604C106.385 18.701 107.619 18.5213 109.033 18.5213C111.477 18.5213 113.31 19.0604 114.532 20.1388C115.754 21.2171 116.365 22.6788 116.365 24.524V30.6346C116.365 31.0419 116.425 31.3175 116.545 31.4613C116.689 31.6051 116.94 31.677 117.3 31.677H118.091V35.0557H117.264C115.898 35.0557 114.868 34.9 114.173 34.5885C113.478 34.2769 112.999 33.7258 112.735 32.935C111.393 34.5885 109.356 35.4152 106.624 35.4152C104.612 35.4152 103.09 34.9838 102.059 34.1212C101.053 33.2345 100.55 32.1083 100.55 30.7424ZM105.366 31.9286C105.846 32.2401 106.469 32.4078 107.235 32.4318C108.505 32.4318 109.692 32.0843 110.794 31.3894C111.896 30.6705 112.447 29.7479 112.447 28.6217V27.3996C111.824 27.4475 111.321 27.4954 110.938 27.5433C110.554 27.5673 110.003 27.6272 109.284 27.7231C108.565 27.8189 107.978 27.9387 107.523 28.0825C107.068 28.2263 106.588 28.418 106.085 28.6576C105.606 28.8733 105.247 29.1608 105.007 29.5203C104.767 29.8558 104.647 30.2392 104.647 30.6705C104.647 31.2217 104.887 31.641 105.366 31.9286Z" fill="white"/>
<path d="M123.142 29.7C123.142 29.7719 123.142 29.8677 123.142 29.9876C123.166 30.1074 123.238 30.323 123.358 30.6346C123.501 30.9461 123.693 31.2217 123.933 31.4613C124.172 31.7009 124.556 31.9286 125.083 32.1442C125.61 32.3359 126.245 32.4318 126.988 32.4318C127.06 32.4318 127.132 32.4318 127.204 32.4318C128.33 32.4318 129.157 32.2521 129.684 31.8926C130.211 31.5092 130.475 31.006 130.475 30.3829C130.475 30.3111 130.475 30.2512 130.475 30.2032C130.451 29.6521 130.055 29.2207 129.289 28.9092C128.546 28.5977 127.647 28.3461 126.593 28.1544C125.562 27.9627 124.52 27.735 123.466 27.4714C122.411 27.2079 121.501 26.7526 120.734 26.1056C119.967 25.4586 119.56 24.6079 119.512 23.5535C119.512 23.4816 119.512 23.4097 119.512 23.3378C119.512 22.1876 120.123 21.0973 121.345 20.0669C122.567 19.0365 124.352 18.5213 126.701 18.5213C128.066 18.5213 129.253 18.689 130.259 19.0245C131.289 19.36 132.044 19.7793 132.524 20.2825C133.003 20.7618 133.374 21.253 133.638 21.7563C133.925 22.2355 134.093 22.6429 134.141 22.9784L134.213 23.4816H130.079C130.079 23.4337 130.067 23.3618 130.043 23.2659C130.019 23.1701 129.936 23.0023 129.792 22.7627C129.648 22.5231 129.468 22.3194 129.253 22.1517C129.037 21.96 128.701 21.7922 128.246 21.6484C127.815 21.5047 127.3 21.4328 126.701 21.4328C125.646 21.4328 124.843 21.6245 124.292 22.0079C123.741 22.3673 123.466 22.7987 123.466 23.3019C123.466 23.3258 123.466 23.3618 123.466 23.4097C123.489 23.9129 123.885 24.3203 124.652 24.6318C125.418 24.9434 126.329 25.195 127.383 25.3867C128.462 25.5784 129.54 25.818 130.618 26.1056C131.697 26.3691 132.619 26.8364 133.386 27.5074C134.177 28.1544 134.596 29.0051 134.644 30.0594C134.644 30.1793 134.644 30.2871 134.644 30.3829C134.644 31.8447 134.009 33.0548 132.739 34.0133C131.493 34.9479 129.516 35.4152 126.808 35.4152C125.395 35.4152 124.148 35.2235 123.07 34.8401C122.016 34.4327 121.237 33.9534 120.734 33.4023C120.254 32.8272 119.871 32.264 119.584 31.7129C119.296 31.1617 119.128 30.6945 119.08 30.3111L119.008 29.7H123.142Z" fill="white"/>
<path d="M135.857 27.0042C135.857 24.4881 136.6 22.4512 138.086 20.8936C139.596 19.312 141.692 18.5213 144.376 18.5213C146.964 18.5213 148.965 19.2881 150.379 20.8217C151.793 22.3314 152.5 24.3203 152.5 26.7885C152.5 27.2438 152.476 27.7231 152.428 28.2263H139.847C139.943 29.4724 140.398 30.4668 141.213 31.2097C142.028 31.9286 143.094 32.288 144.412 32.288C144.987 32.288 145.514 32.2161 145.994 32.0723C146.473 31.9046 146.832 31.7129 147.072 31.4972C147.336 31.2816 147.551 31.0659 147.719 30.8502C147.887 30.6346 147.995 30.4548 148.043 30.3111L148.114 30.0594H152.176C152.152 30.2032 152.104 30.3949 152.032 30.6346C151.96 30.8742 151.745 31.3055 151.385 31.9286C151.05 32.5516 150.619 33.1027 150.091 33.582C149.588 34.0373 148.833 34.4567 147.827 34.8401C146.82 35.2235 145.67 35.4152 144.376 35.4152C141.788 35.4152 139.715 34.6603 138.158 33.1507C136.624 31.617 135.857 29.5682 135.857 27.0042ZM139.847 25.3867H148.582C148.582 25.3627 148.582 25.3268 148.582 25.2788C148.582 24.2245 148.186 23.3618 147.396 22.6908C146.605 21.9959 145.61 21.6484 144.412 21.6484C143.118 21.6484 142.064 22.0079 141.249 22.7268C140.458 23.4217 139.991 24.3083 139.847 25.3867Z" fill="white"/>
</svg>
