<svg width="18" height="18" viewBox="0 0 18 18" fill="none" xmlns="http://www.w3.org/2000/svg">
<path d="M9 0C7.21997 0 5.47991 0.527841 3.99987 1.51677C2.51983 2.50571 1.36628 3.91131 0.685088 5.55585C0.00389959 7.20038 -0.17433 9.00998 0.172936 10.7558C0.520203 12.5016 1.37737 14.1053 2.63604 15.364C3.89471 16.6226 5.49836 17.4798 7.24419 17.8271C8.99002 18.1743 10.7996 17.9961 12.4442 17.3149C14.0887 16.6337 15.4943 15.4802 16.4832 14.0001C17.4722 12.5201 18 10.78 18 9C17.9972 6.61391 17.0481 4.32637 15.3609 2.63915C13.6736 0.95193 11.3861 0.00281493 9 0ZM9 16.3636C7.54361 16.3636 6.11993 15.9318 4.90899 15.1226C3.69804 14.3135 2.75423 13.1635 2.19689 11.8179C1.63955 10.4724 1.49373 8.99183 1.77786 7.56342C2.06198 6.13502 2.7633 4.82294 3.79313 3.79312C4.82295 2.7633 6.13502 2.06198 7.56343 1.77785C8.99183 1.49373 10.4724 1.63955 11.8179 2.19689C13.1635 2.75422 14.3135 3.69804 15.1226 4.90898C15.9318 6.11993 16.3636 7.54361 16.3636 9C16.3613 10.9522 15.5847 12.8238 14.2042 14.2042C12.8238 15.5847 10.9522 16.3613 9 16.3636ZM13.6939 6.40145C13.7666 6.48064 13.8229 6.57335 13.8597 6.67431C13.8965 6.77527 13.913 6.88248 13.9084 6.98984C13.9038 7.09719 13.878 7.20258 13.8327 7.29999C13.7873 7.3974 13.7232 7.48492 13.644 7.55754L8.73491 12.0575C8.57949 12.2001 8.37503 12.2771 8.16421 12.2725C7.95338 12.2679 7.75247 12.1821 7.60337 12.033L5.14882 9.57845C4.99541 9.42493 4.90926 9.21675 4.90934 8.99971C4.90941 8.78267 4.99571 8.57455 5.14923 8.42113C5.30275 8.26772 5.51093 8.18157 5.72797 8.18165C5.94501 8.18173 6.15313 8.26802 6.30655 8.42154L8.20718 10.3222L12.5386 6.35154C12.6985 6.20509 12.91 6.12809 13.1266 6.13745C13.3432 6.14681 13.5473 6.24176 13.6939 6.40145Z" fill="#86EFAC"/>
</svg>
