<svg width="20" height="19" viewBox="0 0 20 19" fill="none" xmlns="http://www.w3.org/2000/svg">
<mask id="mask0_16_3224" style="mask-type:luminance" maskUnits="userSpaceOnUse" x="0" y="0" width="19" height="19">
<path d="M18.5391 0.654297H0.539062V18.6543H18.5391V0.654297Z" fill="white"/>
</mask>
<g mask="url(#mask0_16_3224)">
<path d="M16.4621 13.7233C16.4681 13.7103 16.4771 13.7003 16.4821 13.6873C16.5161 13.6043 16.5311 13.5183 16.5341 13.4293C16.5341 13.4203 16.5391 13.4133 16.5391 13.4043V2.4043C16.5391 1.9903 16.2031 1.6543 15.7891 1.6543H5.28906C3.77206 1.6543 2.53906 2.8873 2.53906 4.4043V15.1543C2.53906 16.5323 3.66006 17.6543 5.03906 17.6543H15.7891C16.0751 17.6543 16.3361 17.4913 16.4621 17.2353C16.5881 16.9793 16.5581 16.6733 16.3831 16.4463C15.8611 15.7673 15.9491 14.4333 16.3871 13.8573C16.4191 13.8153 16.4401 13.7693 16.4621 13.7223V13.7233ZM9.28906 5.1543H12.7891C13.2031 5.1543 13.5391 5.4903 13.5391 5.9043C13.5391 6.3183 13.2031 6.6543 12.7891 6.6543H9.28906C8.87506 6.6543 8.53906 6.3183 8.53906 5.9043C8.53906 5.4903 8.87506 5.1543 9.28906 5.1543ZM9.28906 8.1543H12.7891C13.2031 8.1543 13.5391 8.4903 13.5391 8.9043C13.5391 9.3183 13.2031 9.6543 12.7891 9.6543H9.28906C8.87506 9.6543 8.53906 9.3183 8.53906 8.9043C8.53906 8.4903 8.87506 8.1543 9.28906 8.1543ZM4.03906 4.4043C4.03906 3.7153 4.60006 3.1543 5.28906 3.1543H5.53906V12.6543H5.03906C4.68306 12.6543 4.34606 12.7313 4.03906 12.8663V4.4043ZM14.6311 16.1543H5.03906C4.48706 16.1543 4.03906 15.7053 4.03906 15.1543C4.03906 14.6033 4.48706 14.1543 5.03906 14.1543H14.6441C14.4891 14.7833 14.4701 15.4933 14.6301 16.1543H14.6311Z" fill="#D4D4D4"/>
</g>
</svg>
