<svg width="21" height="20" viewBox="0 0 21 20" fill="none" xmlns="http://www.w3.org/2000/svg">
<path d="M11.354 11.5719V18.8895H7.96094V6.24477H11.1617L11.2183 9.40031H11.0147C11.3465 8.34469 11.8479 7.53036 12.5189 6.95731C13.1976 6.37672 14.0722 6.08643 15.1429 6.08643C16.0176 6.08643 16.7791 6.2787 17.4276 6.66324C18.0835 7.04025 18.5887 7.58691 18.9431 8.30322C19.305 9.01199 19.486 9.86026 19.486 10.848V18.8895H16.093V11.4361C16.093 10.652 15.8894 10.0374 15.4822 9.59258C15.0826 9.14771 14.5246 8.92528 13.8083 8.92528C13.3333 8.92528 12.9073 9.03084 12.5303 9.24197C12.1608 9.44555 11.8705 9.74338 11.6594 10.1355C11.4558 10.5276 11.354 11.0064 11.354 11.5719Z" fill="#737373"/>
<path d="M1.67201 18.89V6.24517H5.06507V18.89H1.67201ZM3.36854 4.59389C2.85581 4.59389 2.41848 4.42423 2.05656 4.08493C1.69463 3.74562 1.51367 3.33469 1.51367 2.85212C1.51367 2.36955 1.69463 1.95862 2.05656 1.61931C2.41848 1.28 2.85581 1.11035 3.36854 1.11035C3.88127 1.11035 4.31859 1.28 4.68052 1.61931C5.04999 1.95107 5.23472 2.36201 5.23472 2.85212C5.23472 3.33469 5.04999 3.74562 4.68052 4.08493C4.31859 4.42423 3.88127 4.59389 3.36854 4.59389Z" fill="#737373"/>
</svg>
