<svg width="360" height="337" viewBox="0 0 360 337" fill="none" xmlns="http://www.w3.org/2000/svg">
<g clip-path="url(#clip0_24_3949)">
<rect y="0.878906" width="360" height="336" rx="120" fill="black" fill-opacity="0.24"/>
<rect x="-25" y="112.879" width="48" height="48" rx="12" fill="#1B1B1B"/>
<rect x="31" y="112.879" width="48" height="48" rx="12" fill="#1B1B1B"/>
<rect x="87.5" y="113.379" width="103" height="47" rx="11.5" stroke="#1B1B1B"/>
<rect x="199" y="112.879" width="48" height="48" rx="12" fill="#1B1B1B"/>
<rect x="255.5" y="113.379" width="47" height="47" rx="11.5" stroke="#1B1B1B"/>
<rect x="311" y="112.879" width="104" height="48" rx="12" fill="#1B1B1B"/>
<path d="M246.589 93.8789C246.589 93.68 246.51 93.4892 246.369 93.3486C246.229 93.2079 246.038 93.1289 245.839 93.1289C245.64 93.1289 245.449 93.2079 245.309 93.3486C245.168 93.4892 245.089 93.68 245.089 93.8789V95.8569C245.089 96.0558 245.168 96.2466 245.309 96.3872C245.449 96.5279 245.64 96.6069 245.839 96.6069C246.038 96.6069 246.229 96.5279 246.369 96.3872C246.51 96.2466 246.589 96.0558 246.589 95.8569V93.8789ZM240.983 95.8239C240.842 95.6864 240.653 95.6096 240.456 95.6103C240.26 95.6109 240.071 95.6888 239.931 95.8272C239.791 95.9656 239.711 96.1534 239.709 96.3501C239.706 96.5469 239.781 96.7368 239.917 96.8789L241.387 98.3619C241.455 98.4383 241.537 98.5001 241.629 98.5436C241.722 98.5871 241.822 98.6112 241.924 98.6147C242.026 98.6181 242.127 98.6007 242.222 98.5635C242.317 98.5263 242.404 98.4701 242.476 98.3984C242.549 98.3267 242.606 98.2409 242.644 98.1464C242.682 98.0518 242.701 97.9504 242.699 97.8485C242.696 97.7465 242.673 97.646 242.631 97.5533C242.589 97.4605 242.528 97.3773 242.452 97.3089L240.983 95.8239ZM251.761 96.8789C251.893 96.7361 251.964 96.5477 251.96 96.3534C251.956 96.1591 251.876 95.974 251.738 95.8372C251.6 95.7004 251.414 95.6226 251.22 95.6201C251.025 95.6176 250.838 95.6907 250.696 95.8239L249.226 97.3079C249.153 97.3769 249.094 97.46 249.053 97.5522C249.013 97.6444 248.991 97.7438 248.99 97.8445C248.989 97.9451 249.008 98.0451 249.046 98.1383C249.084 98.2314 249.141 98.316 249.212 98.3869C249.284 98.4577 249.369 98.5135 249.462 98.5507C249.556 98.588 249.656 98.6061 249.757 98.6038C249.857 98.6016 249.957 98.5791 250.048 98.5377C250.14 98.4963 250.223 98.4369 250.291 98.3629L251.761 96.8789ZM246.8 100.975C245.775 100.571 244.806 101.592 245.19 102.585L248.771 111.835C249.181 112.893 250.672 112.894 251.082 111.835L252.456 108.292L255.964 106.907C257.012 106.493 257.012 105.004 255.964 104.59L246.8 100.975ZM239.96 101.042H238C237.801 101.042 237.61 101.121 237.47 101.262C237.329 101.402 237.25 101.593 237.25 101.792C237.25 101.991 237.329 102.182 237.47 102.322C237.61 102.463 237.801 102.542 238 102.542H239.96C240.159 102.542 240.35 102.463 240.49 102.322C240.631 102.182 240.71 101.991 240.71 101.792C240.71 101.593 240.631 101.402 240.49 101.262C240.35 101.121 240.159 101.042 239.96 101.042ZM242.452 106.276C242.588 106.134 242.663 105.944 242.661 105.747C242.658 105.551 242.578 105.363 242.439 105.224C242.299 105.086 242.11 105.008 241.914 105.007C241.717 105.006 241.528 105.083 241.387 105.22L239.917 106.704C239.848 106.774 239.793 106.857 239.756 106.948C239.718 107.039 239.699 107.137 239.7 107.235C239.7 107.334 239.72 107.431 239.758 107.522C239.796 107.613 239.852 107.696 239.922 107.765C239.992 107.834 240.075 107.889 240.166 107.926C240.257 107.964 240.355 107.983 240.454 107.982C240.552 107.982 240.65 107.962 240.74 107.924C240.831 107.886 240.914 107.83 240.983 107.76L242.452 106.276Z" fill="white"/>
<g clip-path="url(#clip1_24_3949)">
<rect x="254" y="109.379" width="48" height="13" rx="4" fill="white" fill-opacity="0.84"/>
<path d="M266.31 114.589C266.279 114.32 266.154 114.112 265.935 113.964C265.715 113.815 265.439 113.74 265.105 113.74C264.867 113.74 264.66 113.778 264.486 113.853C264.312 113.927 264.176 114.029 264.08 114.16C263.985 114.289 263.938 114.436 263.938 114.6C263.938 114.739 263.97 114.858 264.034 114.958C264.101 115.059 264.187 115.143 264.293 115.211C264.401 115.278 264.516 115.333 264.639 115.379C264.762 115.422 264.881 115.458 264.994 115.487L265.563 115.635C265.748 115.68 265.939 115.742 266.134 115.819C266.329 115.897 266.51 115.999 266.676 116.126C266.843 116.253 266.977 116.41 267.08 116.598C267.184 116.785 267.236 117.01 267.236 117.271C267.236 117.6 267.151 117.893 266.98 118.149C266.812 118.404 266.566 118.606 266.244 118.754C265.924 118.902 265.537 118.975 265.083 118.975C264.647 118.975 264.27 118.906 263.952 118.768C263.634 118.63 263.385 118.434 263.205 118.18C263.025 117.924 262.925 117.621 262.906 117.271H263.787C263.804 117.481 263.872 117.656 263.992 117.797C264.113 117.935 264.267 118.038 264.455 118.106C264.644 118.172 264.851 118.206 265.077 118.206C265.325 118.206 265.546 118.167 265.739 118.089C265.934 118.01 266.087 117.9 266.199 117.76C266.311 117.618 266.367 117.452 266.367 117.262C266.367 117.09 266.317 116.949 266.219 116.839C266.122 116.729 265.991 116.638 265.824 116.566C265.659 116.494 265.473 116.431 265.264 116.376L264.577 116.189C264.111 116.062 263.742 115.875 263.469 115.629C263.198 115.383 263.063 115.057 263.063 114.652C263.063 114.316 263.154 114.024 263.335 113.774C263.517 113.524 263.763 113.33 264.074 113.191C264.385 113.051 264.735 112.981 265.125 112.981C265.519 112.981 265.867 113.05 266.168 113.189C266.471 113.327 266.709 113.517 266.884 113.76C267.058 114 267.149 114.277 267.156 114.589H266.31ZM269.103 118.975C268.826 118.975 268.576 118.924 268.353 118.822C268.129 118.718 267.952 118.567 267.821 118.37C267.693 118.173 267.628 117.932 267.628 117.646C267.628 117.4 267.676 117.197 267.77 117.038C267.865 116.879 267.993 116.753 268.154 116.66C268.315 116.567 268.495 116.497 268.694 116.45C268.892 116.403 269.095 116.367 269.301 116.342C269.563 116.312 269.775 116.287 269.938 116.268C270.101 116.247 270.219 116.214 270.293 116.169C270.367 116.123 270.404 116.049 270.404 115.947V115.927C270.404 115.679 270.334 115.487 270.194 115.35C270.055 115.214 269.849 115.146 269.574 115.146C269.288 115.146 269.063 115.209 268.898 115.336C268.735 115.461 268.623 115.6 268.56 115.754L267.762 115.572C267.856 115.307 267.995 115.093 268.176 114.93C268.36 114.765 268.571 114.646 268.81 114.572C269.049 114.496 269.3 114.458 269.563 114.458C269.737 114.458 269.922 114.479 270.117 114.521C270.314 114.561 270.498 114.635 270.668 114.743C270.84 114.85 270.981 115.005 271.091 115.206C271.201 115.404 271.256 115.663 271.256 115.981V118.879H270.426V118.282H270.392C270.337 118.392 270.255 118.5 270.145 118.606C270.035 118.712 269.894 118.8 269.722 118.87C269.55 118.94 269.343 118.975 269.103 118.975ZM269.287 118.294C269.522 118.294 269.723 118.247 269.89 118.154C270.058 118.062 270.186 117.94 270.273 117.791C270.362 117.639 270.407 117.477 270.407 117.305V116.743C270.376 116.773 270.318 116.801 270.23 116.828C270.145 116.852 270.048 116.874 269.938 116.893C269.828 116.91 269.721 116.926 269.617 116.941C269.513 116.955 269.426 116.966 269.355 116.975C269.191 116.996 269.04 117.031 268.904 117.081C268.769 117.13 268.661 117.201 268.58 117.294C268.5 117.385 268.461 117.506 268.461 117.657C268.461 117.868 268.538 118.027 268.694 118.135C268.849 118.241 269.047 118.294 269.287 118.294ZM272.003 118.879V114.515H272.819V115.225H272.873C272.964 114.985 273.112 114.797 273.319 114.663C273.525 114.527 273.772 114.458 274.06 114.458C274.352 114.458 274.596 114.527 274.793 114.663C274.992 114.799 275.139 114.987 275.234 115.225H275.279C275.383 114.993 275.549 114.807 275.776 114.669C276.003 114.529 276.274 114.458 276.589 114.458C276.984 114.458 277.307 114.583 277.557 114.831C277.809 115.079 277.935 115.453 277.935 115.953V118.879H277.086V116.032C277.086 115.737 277.005 115.523 276.844 115.39C276.683 115.258 276.491 115.191 276.268 115.191C275.991 115.191 275.776 115.277 275.623 115.447C275.469 115.616 275.393 115.833 275.393 116.098V118.879H274.546V115.978C274.546 115.742 274.472 115.551 274.324 115.407C274.177 115.263 273.984 115.191 273.748 115.191C273.587 115.191 273.438 115.234 273.302 115.319C273.167 115.403 273.058 115.519 272.975 115.669C272.894 115.818 272.853 115.992 272.853 116.189V118.879H272.003Z" fill="#262626"/>
</g>
<rect x="143.5" y="1.37891" width="103" height="47" rx="11.5" stroke="#1B1B1B"/>
<rect x="-24.5" y="57.3789" width="47" height="47" rx="11.5" stroke="#1B1B1B"/>
<rect x="31" y="56.8789" width="48" height="48" rx="12" fill="#1B1B1B"/>
<rect x="87" y="56.8789" width="196" height="48" rx="12" fill="#1B1B1B"/>
<path d="M112.333 83.5449H113.666V82.2116H115V80.8783H113.666V79.5449H112.333V80.8783H111V82.2116H112.333V83.5449ZM105.666 86.2116C105.3 86.2116 104.986 86.0811 104.725 85.8203C104.464 85.5594 104.333 85.2454 104.333 84.8783V76.8783C104.333 76.5116 104.464 76.1978 104.725 75.9369C104.986 75.676 105.3 75.5454 105.666 75.5449H109.666L111 76.8783H116.333C116.7 76.8783 117.014 77.0089 117.275 77.2703C117.536 77.5316 117.667 77.8454 117.666 78.2116V84.8783C117.666 85.2449 117.536 85.5589 117.275 85.8203C117.014 86.0816 116.7 86.212 116.333 86.2116H105.666Z" fill="white" fill-opacity="0.64"/>
<path d="M135.491 78.9897H134.162C134.11 78.7056 134.015 78.4556 133.876 78.2397C133.737 78.0238 133.566 77.8406 133.365 77.69C133.163 77.5394 132.937 77.4258 132.687 77.3491C132.44 77.2724 132.177 77.234 131.899 77.234C131.396 77.234 130.946 77.3604 130.548 77.6133C130.153 77.8661 129.841 78.2369 129.61 78.7255C129.383 79.2141 129.269 79.8107 129.269 80.5153C129.269 81.2255 129.383 81.8249 129.61 82.3136C129.841 82.8022 130.154 83.1715 130.552 83.4215C130.95 83.6715 131.397 83.7965 131.894 83.7965C132.17 83.7965 132.431 83.7596 132.679 83.6857C132.929 83.609 133.154 83.4968 133.356 83.3491C133.558 83.2013 133.728 83.021 133.868 82.8079C134.01 82.592 134.108 82.3448 134.162 82.0664L135.491 82.0707C135.42 82.4996 135.282 82.8945 135.078 83.2553C134.876 83.6133 134.616 83.9229 134.298 84.1843C133.983 84.4428 133.622 84.6431 133.216 84.7852C132.809 84.9272 132.366 84.9982 131.886 84.9982C131.13 84.9982 130.457 84.8192 129.866 84.4613C129.275 84.1005 128.809 83.5849 128.468 82.9144C128.13 82.244 127.961 81.4442 127.961 80.5153C127.961 79.5835 128.132 78.7837 128.473 78.1161C128.814 77.4457 129.279 76.9315 129.87 76.5735C130.461 76.2127 131.133 76.0323 131.886 76.0323C132.349 76.0323 132.781 76.0991 133.181 76.2326C133.585 76.3633 133.947 76.5565 134.268 76.8121C134.589 77.065 134.855 77.3746 135.065 77.7411C135.275 78.1048 135.417 78.521 135.491 78.9897ZM136.58 84.8789V78.3335H137.812V79.3732H137.88C137.999 79.021 138.21 78.744 138.511 78.5423C138.815 78.3377 139.159 78.2354 139.542 78.2354C139.622 78.2354 139.715 78.2383 139.823 78.244C139.934 78.2496 140.021 78.2567 140.083 78.2653V79.484C140.032 79.4698 139.941 79.4542 139.811 79.4371C139.68 79.4173 139.549 79.4073 139.419 79.4073C139.117 79.4073 138.849 79.4712 138.613 79.5991C138.38 79.7241 138.196 79.8988 138.059 80.1232C137.923 80.3448 137.855 80.5977 137.855 80.8817V84.8789H136.58ZM143.389 85.011C142.744 85.011 142.188 84.8732 141.722 84.5977C141.259 84.3192 140.901 83.9286 140.649 83.4258C140.399 82.9201 140.274 82.3278 140.274 81.6488C140.274 80.9783 140.399 80.3874 140.649 79.8761C140.901 79.3647 141.254 78.9656 141.705 78.6786C142.16 78.3917 142.691 78.2482 143.299 78.2482C143.668 78.2482 144.026 78.3093 144.373 78.4315C144.72 78.5536 145.031 78.7454 145.306 79.0067C145.582 79.2681 145.799 79.6076 145.958 80.0252C146.117 80.44 146.197 80.9442 146.197 81.538V81.9897H140.994V81.0352H144.948C144.948 80.6999 144.88 80.4031 144.744 80.1445C144.607 79.8832 144.416 79.6772 144.168 79.5266C143.924 79.3761 143.637 79.3008 143.308 79.3008C142.95 79.3008 142.637 79.3888 142.37 79.565C142.106 79.7383 141.901 79.9656 141.756 80.2468C141.614 80.5252 141.543 80.8278 141.543 81.1545V81.9002C141.543 82.3377 141.62 82.7099 141.774 83.0167C141.93 83.3235 142.147 83.5579 142.426 83.7198C142.704 83.8789 143.029 83.9585 143.401 83.9585C143.643 83.9585 143.863 83.9244 144.062 83.8562C144.261 83.7852 144.433 83.68 144.577 83.5408C144.722 83.4016 144.833 83.2298 144.91 83.0252L146.116 83.2425C146.019 83.5977 145.846 83.9087 145.596 84.1758C145.349 84.44 145.038 84.646 144.663 84.7937C144.291 84.9386 143.866 85.011 143.389 85.011ZM149.131 85.0238C148.717 85.0238 148.342 84.9471 148.006 84.7937C147.671 84.6374 147.405 84.4116 147.209 84.1161C147.016 83.8207 146.92 83.4585 146.92 83.0295C146.92 82.6602 146.991 82.3562 147.133 82.1175C147.275 81.8789 147.467 81.69 147.708 81.5508C147.95 81.4116 148.219 81.3065 148.518 81.2354C148.816 81.1644 149.12 81.1104 149.43 81.0735C149.822 81.0281 150.14 80.9911 150.384 80.9627C150.629 80.9315 150.806 80.8817 150.917 80.8136C151.028 80.7454 151.083 80.6346 151.083 80.4812V80.4513C151.083 80.0792 150.978 79.7908 150.768 79.5863C150.56 79.3817 150.251 79.2795 149.839 79.2795C149.41 79.2795 149.072 79.3746 148.825 79.565C148.58 79.7525 148.411 79.9613 148.317 80.1914L147.12 79.9187C147.262 79.521 147.469 79.1999 147.742 78.9556C148.018 78.7085 148.334 78.5295 148.692 78.4187C149.05 78.305 149.427 78.2482 149.822 78.2482C150.083 78.2482 150.36 78.2795 150.653 78.342C150.948 78.4016 151.224 78.5124 151.479 78.6744C151.738 78.8363 151.95 79.0678 152.114 79.369C152.279 79.6673 152.361 80.055 152.361 80.5323V84.8789H151.117V83.984H151.066C150.984 84.1488 150.86 84.3107 150.695 84.4698C150.53 84.6289 150.319 84.761 150.06 84.8661C149.802 84.9712 149.492 85.0238 149.131 85.0238ZM149.408 84.0011C149.761 84.0011 150.062 83.9315 150.312 83.7923C150.565 83.6531 150.756 83.4712 150.887 83.2468C151.021 83.0195 151.087 82.7766 151.087 82.5181V81.6744C151.042 81.7198 150.954 81.7624 150.823 81.8022C150.695 81.8391 150.549 81.8718 150.384 81.9002C150.219 81.9258 150.059 81.9499 149.903 81.9727C149.746 81.9925 149.616 82.0096 149.511 82.0238C149.263 82.055 149.038 82.1076 148.833 82.1815C148.631 82.2553 148.469 82.3619 148.347 82.5011C148.228 82.6374 148.168 82.8192 148.168 83.0465C148.168 83.3619 148.285 83.6005 148.518 83.7624C148.751 83.9215 149.048 84.0011 149.408 84.0011ZM156.73 78.3335V79.3562H153.155V78.3335H156.73ZM154.113 76.7653H155.388V82.957C155.388 83.2042 155.425 83.3903 155.498 83.5153C155.572 83.6374 155.667 83.7212 155.784 83.7667C155.903 83.8093 156.033 83.8306 156.172 83.8306C156.274 83.8306 156.363 83.8235 156.44 83.8093C156.517 83.7951 156.577 83.7837 156.619 83.7752L156.849 84.8278C156.775 84.8562 156.67 84.8846 156.534 84.913C156.398 84.9442 156.227 84.9613 156.023 84.9641C155.687 84.9698 155.375 84.9102 155.085 84.7852C154.795 84.6602 154.561 84.467 154.382 84.2056C154.203 83.9442 154.113 83.6161 154.113 83.2212V76.7653ZM160.506 85.011C159.861 85.011 159.306 84.8732 158.84 84.5977C158.377 84.3192 158.019 83.9286 157.766 83.4258C157.516 82.9201 157.391 82.3278 157.391 81.6488C157.391 80.9783 157.516 80.3874 157.766 79.8761C158.019 79.3647 158.371 78.9656 158.823 78.6786C159.277 78.3917 159.809 78.2482 160.417 78.2482C160.786 78.2482 161.144 78.3093 161.49 78.4315C161.837 78.5536 162.148 78.7454 162.424 79.0067C162.699 79.2681 162.917 79.6076 163.076 80.0252C163.235 80.44 163.314 80.9442 163.314 81.538V81.9897H158.111V81.0352H162.066C162.066 80.6999 161.998 80.4031 161.861 80.1445C161.725 79.8832 161.533 79.6772 161.286 79.5266C161.042 79.3761 160.755 79.3008 160.425 79.3008C160.067 79.3008 159.755 79.3888 159.488 79.565C159.223 79.7383 159.019 79.9656 158.874 80.2468C158.732 80.5252 158.661 80.8278 158.661 81.1545V81.9002C158.661 82.3377 158.738 82.7099 158.891 83.0167C159.047 83.3235 159.265 83.5579 159.543 83.7198C159.821 83.8789 160.147 83.9585 160.519 83.9585C160.76 83.9585 160.981 83.9244 161.179 83.8562C161.378 83.7852 161.55 83.68 161.695 83.5408C161.84 83.4016 161.951 83.2298 162.027 83.0252L163.233 83.2425C163.137 83.5977 162.963 83.9087 162.713 84.1758C162.466 84.44 162.155 84.646 161.78 84.7937C161.408 84.9386 160.983 85.011 160.506 85.011ZM174.282 76.1516V84.8789H173.072L168.636 78.4783H168.555V84.8789H167.238V76.1516H168.457L172.897 82.5607H172.978V76.1516H174.282ZM178.538 85.011C177.893 85.011 177.337 84.8732 176.872 84.5977C176.408 84.3192 176.05 83.9286 175.798 83.4258C175.548 82.9201 175.423 82.3278 175.423 81.6488C175.423 80.9783 175.548 80.3874 175.798 79.8761C176.05 79.3647 176.403 78.9656 176.854 78.6786C177.309 78.3917 177.84 78.2482 178.448 78.2482C178.818 78.2482 179.175 78.3093 179.522 78.4315C179.869 78.5536 180.18 78.7454 180.455 79.0067C180.731 79.2681 180.948 79.6076 181.107 80.0252C181.266 80.44 181.346 80.9442 181.346 81.538V81.9897H176.143V81.0352H180.097C180.097 80.6999 180.029 80.4031 179.893 80.1445C179.756 79.8832 179.565 79.6772 179.318 79.5266C179.073 79.3761 178.786 79.3008 178.457 79.3008C178.099 79.3008 177.786 79.3888 177.519 79.565C177.255 79.7383 177.05 79.9656 176.906 80.2468C176.764 80.5252 176.693 80.8278 176.693 81.1545V81.9002C176.693 82.3377 176.769 82.7099 176.923 83.0167C177.079 83.3235 177.296 83.5579 177.575 83.7198C177.853 83.8789 178.178 83.9585 178.55 83.9585C178.792 83.9585 179.012 83.9244 179.211 83.8562C179.41 83.7852 179.582 83.68 179.727 83.5408C179.872 83.4016 179.982 83.2298 180.059 83.0252L181.265 83.2425C181.168 83.5977 180.995 83.9087 180.745 84.1758C180.498 84.44 180.187 84.646 179.812 84.7937C179.44 84.9386 179.015 85.011 178.538 85.011ZM183.783 84.8789L181.857 78.3335H183.174L184.456 83.1403H184.52L185.807 78.3335H187.124L188.402 83.119H188.466L189.74 78.3335H191.057L189.135 84.8789H187.836L186.506 80.1531H186.408L185.078 84.8789H183.783ZM194.776 84.8789V76.1516H200.188V77.2852H196.093V79.9442H199.8V81.0735H196.093V84.8789H194.776ZM201.321 84.8789V78.3335H202.595V84.8789H201.321ZM201.965 77.3235C201.743 77.3235 201.553 77.2496 201.394 77.1019C201.237 76.9513 201.159 76.7724 201.159 76.565C201.159 76.3548 201.237 76.1758 201.394 76.0281C201.553 75.8775 201.743 75.8022 201.965 75.8022C202.186 75.8022 202.375 75.8775 202.532 76.0281C202.691 76.1758 202.77 76.3548 202.77 76.565C202.77 76.7724 202.691 76.9513 202.532 77.1019C202.375 77.2496 202.186 77.3235 201.965 77.3235ZM205.2 76.1516V84.8789H203.926V76.1516H205.2ZM209.351 85.011C208.706 85.011 208.151 84.8732 207.685 84.5977C207.222 84.3192 206.864 83.9286 206.611 83.4258C206.361 82.9201 206.236 82.3278 206.236 81.6488C206.236 80.9783 206.361 80.3874 206.611 79.8761C206.864 79.3647 207.216 78.9656 207.668 78.6786C208.122 78.3917 208.653 78.2482 209.261 78.2482C209.631 78.2482 209.989 78.3093 210.335 78.4315C210.682 78.5536 210.993 78.7454 211.268 79.0067C211.544 79.2681 211.761 79.6076 211.92 80.0252C212.08 80.44 212.159 80.9442 212.159 81.538V81.9897H206.956V81.0352H210.911C210.911 80.6999 210.842 80.4031 210.706 80.1445C210.57 79.8832 210.378 79.6772 210.131 79.5266C209.886 79.3761 209.599 79.3008 209.27 79.3008C208.912 79.3008 208.599 79.3888 208.332 79.565C208.068 79.7383 207.864 79.9656 207.719 80.2468C207.577 80.5252 207.506 80.8278 207.506 81.1545V81.9002C207.506 82.3377 207.582 82.7099 207.736 83.0167C207.892 83.3235 208.109 83.5579 208.388 83.7198C208.666 83.8789 208.992 83.9585 209.364 83.9585C209.605 83.9585 209.825 83.9244 210.024 83.8562C210.223 83.7852 210.395 83.68 210.54 83.5408C210.685 83.4016 210.795 83.2298 210.872 83.0252L212.078 83.2425C211.982 83.5977 211.808 83.9087 211.558 84.1758C211.311 84.44 211 84.646 210.625 84.7937C210.253 84.9386 209.828 85.011 209.351 85.011Z" fill="white" fill-opacity="0.5"/>
<rect x="291.5" y="57.3789" width="103" height="47" rx="11.5" stroke="#1B1B1B"/>
<rect x="-25" y="224.879" width="48" height="48" rx="12" fill="#1B1B1B"/>
<rect x="31" y="224.879" width="48" height="48" rx="12" fill="#1B1B1B"/>
<rect x="87" y="224.879" width="48" height="48" rx="12" fill="#1B1B1B"/>
<rect x="143" y="224.879" width="48" height="48" rx="12" fill="#1B1B1B"/>
<rect x="199.5" y="225.379" width="47" height="47" rx="11.5" stroke="#1B1B1B"/>
<rect x="255" y="224.879" width="48" height="48" rx="12" fill="#1B1B1B"/>
<rect x="311" y="224.879" width="48" height="48" rx="12" fill="#1B1B1B"/>
<rect x="31" y="280.879" width="48" height="48" rx="12" fill="#1B1B1B"/>
<rect x="87.5" y="281.379" width="47" height="47" rx="11.5" stroke="#1B1B1B"/>
<rect x="143" y="280.879" width="48" height="48" rx="12" fill="#1B1B1B"/>
<rect x="199" y="280.879" width="152" height="48" rx="12" fill="#1B1B1B"/>
<path d="M225.277 301.779C225.084 301.779 224.897 301.846 224.748 301.969C224.599 302.091 224.497 302.262 224.459 302.451C224.422 302.64 224.451 302.837 224.542 303.007C224.633 303.177 224.78 303.31 224.959 303.384C225.137 303.458 225.335 303.467 225.52 303.411C225.705 303.355 225.864 303.237 225.971 303.076C226.078 302.916 226.126 302.723 226.107 302.531C226.088 302.339 226.003 302.16 225.867 302.023C225.79 301.946 225.698 301.884 225.596 301.842C225.495 301.801 225.387 301.779 225.277 301.779Z" fill="white" fill-opacity="0.5"/>
<path d="M229.92 298.443C229.92 298.442 229.92 298.441 229.92 298.44C229.894 298.325 229.836 298.218 229.752 298.134C229.669 298.049 229.563 297.99 229.448 297.962C228.516 297.735 227.051 297.977 225.428 298.627C223.792 299.284 222.259 300.252 221.222 301.29C220.89 301.621 220.582 301.974 220.299 302.348C219.601 302.316 218.986 302.416 218.469 302.642C216.664 303.436 216.149 305.468 216.012 306.302C215.992 306.421 216 306.542 216.034 306.657C216.069 306.772 216.13 306.878 216.212 306.966C216.295 307.053 216.396 307.121 216.508 307.163C216.621 307.205 216.742 307.221 216.861 307.209H216.865L218.875 306.989C218.878 307.015 218.881 307.038 218.883 307.06C218.909 307.305 219.018 307.533 219.192 307.707L220.173 308.689C220.347 308.863 220.576 308.973 220.82 308.999L220.888 309.006L220.669 311.013V311.017C220.658 311.125 220.669 311.235 220.703 311.338C220.736 311.441 220.791 311.537 220.863 311.618C220.936 311.699 221.024 311.764 221.123 311.809C221.222 311.854 221.329 311.878 221.438 311.879C221.481 311.879 221.525 311.875 221.568 311.868C222.407 311.733 224.438 311.224 225.23 309.41C225.454 308.896 225.553 308.284 225.525 307.587C225.9 307.305 226.255 306.996 226.586 306.664C227.631 305.624 228.603 304.104 229.252 302.491C229.899 300.886 230.142 299.41 229.92 298.443ZM226.575 303.908C226.318 304.165 225.991 304.34 225.635 304.411C225.278 304.482 224.909 304.446 224.573 304.307C224.237 304.168 223.95 303.933 223.749 303.631C223.547 303.329 223.439 302.974 223.439 302.61C223.439 302.247 223.547 301.892 223.749 301.59C223.95 301.288 224.237 301.052 224.573 300.913C224.909 300.774 225.278 300.738 225.635 300.809C225.991 300.88 226.318 301.055 226.575 301.312C226.747 301.482 226.884 301.684 226.977 301.907C227.07 302.13 227.118 302.369 227.118 302.61C227.118 302.852 227.07 303.091 226.977 303.314C226.884 303.537 226.747 303.739 226.575 303.908Z" fill="white" fill-opacity="0.5"/>
<path d="M220.06 308.956C219.94 308.941 219.817 308.97 219.717 309.039C219.517 309.176 219.316 309.311 219.114 309.442C218.704 309.709 218.214 309.241 218.458 308.817L218.837 308.161C218.892 308.082 218.922 307.988 218.924 307.892C218.927 307.796 218.902 307.701 218.852 307.619C218.802 307.537 218.729 307.471 218.642 307.429C218.556 307.387 218.459 307.371 218.364 307.383C217.942 307.436 217.55 307.628 217.25 307.928C217.136 308.043 216.788 308.391 216.601 309.718C216.548 310.099 216.514 310.482 216.5 310.867C216.498 310.933 216.51 311 216.534 311.062C216.559 311.124 216.595 311.181 216.642 311.229C216.689 311.276 216.744 311.314 216.806 311.34C216.867 311.366 216.933 311.38 217 311.38H217.013C217.397 311.366 217.781 311.333 218.163 311.28C219.49 311.092 219.838 310.744 219.952 310.63C220.254 310.329 220.446 309.936 220.496 309.513C220.512 309.381 220.475 309.249 220.393 309.144C220.312 309.04 220.192 308.972 220.06 308.956Z" fill="white" fill-opacity="0.5"/>
<path d="M240.134 308.879V300.152H243.245C243.924 300.152 244.487 300.275 244.933 300.522C245.379 300.77 245.712 301.108 245.934 301.537C246.156 301.963 246.266 302.443 246.266 302.977C246.266 303.514 246.154 303.997 245.93 304.426C245.708 304.852 245.373 305.19 244.924 305.44C244.478 305.687 243.917 305.811 243.241 305.811H241.102V304.694H243.121C243.55 304.694 243.898 304.62 244.165 304.473C244.433 304.322 244.629 304.118 244.754 303.859C244.879 303.6 244.941 303.306 244.941 302.977C244.941 302.647 244.879 302.355 244.754 302.099C244.629 301.843 244.431 301.643 244.161 301.498C243.894 301.353 243.542 301.281 243.104 301.281H241.451V308.879H240.134ZM251.47 306.164V302.333H252.748V308.879H251.496V307.745H251.427C251.277 308.095 251.035 308.386 250.703 308.619C250.373 308.849 249.963 308.964 249.471 308.964C249.051 308.964 248.679 308.872 248.355 308.687C248.034 308.5 247.781 308.223 247.596 307.856C247.415 307.49 247.324 307.037 247.324 306.497V302.333H248.598V306.343C248.598 306.789 248.721 307.145 248.969 307.409C249.216 307.673 249.537 307.805 249.932 307.805C250.17 307.805 250.408 307.745 250.643 307.626C250.882 307.507 251.079 307.326 251.236 307.085C251.395 306.843 251.473 306.537 251.47 306.164ZM254.179 308.879V300.152H255.453V303.395H255.53C255.603 303.258 255.71 303.1 255.849 302.922C255.988 302.743 256.182 302.586 256.429 302.453C256.676 302.316 257.003 302.248 257.409 302.248C257.937 302.248 258.409 302.382 258.824 302.649C259.238 302.916 259.564 303.301 259.799 303.804C260.038 304.306 260.157 304.912 260.157 305.619C260.157 306.326 260.04 306.933 259.804 307.439C259.568 307.941 259.244 308.329 258.832 308.602C258.42 308.872 257.95 309.007 257.422 309.007C257.024 309.007 256.699 308.94 256.446 308.806C256.196 308.673 256 308.517 255.858 308.338C255.716 308.159 255.606 308 255.53 307.86H255.423V308.879H254.179ZM255.427 305.606C255.427 306.066 255.494 306.47 255.628 306.816C255.761 307.163 255.954 307.434 256.207 307.63C256.46 307.824 256.77 307.92 257.136 307.92C257.517 307.92 257.835 307.819 258.091 307.618C258.346 307.413 258.54 307.136 258.67 306.787C258.804 306.437 258.871 306.044 258.871 305.606C258.871 305.174 258.805 304.787 258.674 304.443C258.547 304.099 258.353 303.828 258.095 303.629C257.839 303.43 257.52 303.331 257.136 303.331C256.767 303.331 256.454 303.426 256.199 303.616C255.946 303.806 255.754 304.072 255.623 304.413C255.493 304.754 255.427 305.152 255.427 305.606ZM262.478 300.152V308.879H261.204V300.152H262.478ZM263.808 308.879V302.333H265.083V308.879H263.808ZM264.452 301.324C264.23 301.324 264.04 301.25 263.881 301.102C263.725 300.951 263.647 300.772 263.647 300.565C263.647 300.355 263.725 300.176 263.881 300.028C264.04 299.877 264.23 299.802 264.452 299.802C264.674 299.802 264.862 299.877 265.019 300.028C265.178 300.176 265.257 300.355 265.257 300.565C265.257 300.772 265.178 300.951 265.019 301.102C264.862 301.25 264.674 301.324 264.452 301.324ZM271.318 303.931L270.163 304.136C270.114 303.988 270.038 303.848 269.933 303.714C269.83 303.581 269.691 303.471 269.515 303.386C269.339 303.301 269.119 303.258 268.855 303.258C268.494 303.258 268.193 303.339 267.951 303.501C267.71 303.66 267.589 303.866 267.589 304.119C267.589 304.338 267.67 304.514 267.832 304.647C267.994 304.781 268.255 304.89 268.616 304.975L269.656 305.214C270.258 305.353 270.707 305.568 271.002 305.858C271.298 306.147 271.445 306.524 271.445 306.987C271.445 307.379 271.332 307.728 271.105 308.035C270.88 308.339 270.566 308.578 270.163 308.751C269.762 308.924 269.298 309.011 268.769 309.011C268.036 309.011 267.438 308.855 266.975 308.542C266.512 308.227 266.228 307.779 266.123 307.2L267.355 307.012C267.431 307.333 267.589 307.576 267.828 307.741C268.066 307.903 268.377 307.984 268.761 307.984C269.178 307.984 269.512 307.897 269.762 307.724C270.012 307.548 270.137 307.333 270.137 307.081C270.137 306.876 270.06 306.704 269.907 306.565C269.757 306.426 269.525 306.321 269.212 306.25L268.105 306.007C267.494 305.868 267.042 305.646 266.749 305.342C266.46 305.038 266.315 304.653 266.315 304.187C266.315 303.801 266.423 303.463 266.639 303.173C266.855 302.883 267.153 302.657 267.533 302.495C267.914 302.331 268.35 302.248 268.842 302.248C269.549 302.248 270.106 302.402 270.512 302.708C270.918 303.012 271.187 303.42 271.318 303.931ZM273.736 304.993V308.879H272.462V300.152H273.719V303.399H273.8C273.954 303.047 274.188 302.767 274.504 302.559C274.819 302.352 275.231 302.248 275.739 302.248C276.188 302.248 276.58 302.341 276.915 302.525C277.254 302.71 277.515 302.985 277.7 303.352C277.887 303.716 277.981 304.17 277.981 304.716V308.879H276.707V304.869C276.707 304.389 276.583 304.017 276.336 303.752C276.089 303.485 275.745 303.352 275.305 303.352C275.004 303.352 274.734 303.416 274.495 303.544C274.259 303.672 274.073 303.859 273.937 304.106C273.803 304.35 273.736 304.646 273.736 304.993Z" fill="white" fill-opacity="0.5"/>
<path d="M138.089 207.129C138.089 206.93 138.01 206.739 137.869 206.599C137.729 206.458 137.538 206.379 137.339 206.379C137.14 206.379 136.949 206.458 136.809 206.599C136.668 206.739 136.589 206.93 136.589 207.129V209.107C136.589 209.306 136.668 209.497 136.809 209.637C136.949 209.778 137.14 209.857 137.339 209.857C137.538 209.857 137.729 209.778 137.869 209.637C138.01 209.497 138.089 209.306 138.089 209.107V207.129ZM132.483 209.074C132.342 208.936 132.153 208.86 131.956 208.86C131.76 208.861 131.571 208.939 131.431 209.077C131.291 209.216 131.211 209.403 131.209 209.6C131.206 209.797 131.281 209.987 131.417 210.129L132.887 211.612C132.955 211.688 133.037 211.75 133.129 211.794C133.222 211.837 133.322 211.861 133.424 211.865C133.526 211.868 133.627 211.851 133.722 211.813C133.817 211.776 133.904 211.72 133.976 211.648C134.049 211.577 134.106 211.491 134.144 211.396C134.182 211.302 134.201 211.2 134.199 211.098C134.196 210.996 134.173 210.896 134.131 210.803C134.089 210.71 134.028 210.627 133.952 210.559L132.483 209.074ZM143.261 210.129C143.393 209.986 143.464 209.798 143.46 209.603C143.456 209.409 143.376 209.224 143.238 209.087C143.1 208.95 142.914 208.873 142.72 208.87C142.525 208.868 142.338 208.941 142.196 209.074L140.726 210.558C140.653 210.627 140.594 210.71 140.553 210.802C140.513 210.894 140.491 210.994 140.49 211.094C140.489 211.195 140.508 211.295 140.546 211.388C140.584 211.481 140.641 211.566 140.712 211.637C140.784 211.708 140.869 211.763 140.962 211.801C141.056 211.838 141.156 211.856 141.257 211.854C141.357 211.852 141.457 211.829 141.548 211.788C141.64 211.746 141.723 211.687 141.791 211.613L143.261 210.129ZM138.3 214.225C137.275 213.821 136.306 214.842 136.69 215.835L140.271 225.085C140.681 226.143 142.172 226.144 142.582 225.085L143.956 221.542L147.464 220.157C148.512 219.743 148.512 218.254 147.464 217.84L138.3 214.225ZM131.46 214.292H129.5C129.301 214.292 129.11 214.371 128.97 214.512C128.829 214.652 128.75 214.843 128.75 215.042C128.75 215.241 128.829 215.432 128.97 215.572C129.11 215.713 129.301 215.792 129.5 215.792H131.46C131.659 215.792 131.85 215.713 131.99 215.572C132.131 215.432 132.21 215.241 132.21 215.042C132.21 214.843 132.131 214.652 131.99 214.512C131.85 214.371 131.659 214.292 131.46 214.292ZM133.952 219.526C134.088 219.384 134.163 219.194 134.161 218.997C134.158 218.801 134.078 218.613 133.939 218.474C133.799 218.336 133.61 218.258 133.414 218.257C133.217 218.256 133.028 218.333 132.887 218.47L131.417 219.954C131.348 220.024 131.293 220.107 131.256 220.198C131.218 220.289 131.199 220.387 131.2 220.485C131.2 220.584 131.22 220.681 131.258 220.772C131.296 220.863 131.352 220.946 131.422 221.015C131.492 221.084 131.575 221.139 131.666 221.176C131.757 221.214 131.855 221.233 131.954 221.232C132.052 221.232 132.15 221.212 132.24 221.174C132.331 221.136 132.414 221.08 132.483 221.01L133.952 219.526Z" fill="white"/>
<g clip-path="url(#clip2_24_3949)">
<rect x="145.5" y="222.629" width="48" height="13" rx="4" fill="white" fill-opacity="0.84"/>
<path d="M159.337 229.22C159.337 229.841 159.224 230.375 158.996 230.822C158.769 231.267 158.458 231.61 158.062 231.85C157.668 232.089 157.22 232.208 156.718 232.208C156.214 232.208 155.764 232.089 155.369 231.85C154.975 231.61 154.664 231.266 154.437 230.819C154.21 230.372 154.096 229.839 154.096 229.22C154.096 228.599 154.21 228.065 154.437 227.62C154.664 227.173 154.975 226.831 155.369 226.592C155.764 226.351 156.214 226.231 156.718 226.231C157.22 226.231 157.668 226.351 158.062 226.592C158.458 226.831 158.769 227.173 158.996 227.62C159.224 228.065 159.337 228.599 159.337 229.22ZM158.468 229.22C158.468 228.746 158.391 228.348 158.238 228.024C158.086 227.698 157.878 227.452 157.613 227.285C157.35 227.117 157.051 227.032 156.718 227.032C156.383 227.032 156.084 227.117 155.82 227.285C155.557 227.452 155.349 227.698 155.195 228.024C155.044 228.348 154.968 228.746 154.968 229.22C154.968 229.693 155.044 230.093 155.195 230.419C155.349 230.743 155.557 230.989 155.82 231.157C156.084 231.324 156.383 231.407 156.718 231.407C157.051 231.407 157.35 231.324 157.613 231.157C157.878 230.989 158.086 230.743 158.238 230.419C158.391 230.093 158.468 229.693 158.468 229.22ZM160.65 227.765L161.613 229.464L162.585 227.765H163.514L162.153 229.947L163.525 232.129H162.596L161.613 230.498L160.633 232.129H159.701L161.059 229.947L159.718 227.765H160.65ZM166.393 229.302V230.038H163.814V229.302H166.393ZM168.411 232.225C168.135 232.225 167.885 232.174 167.661 232.072C167.438 231.968 167.261 231.817 167.13 231.62C167.001 231.423 166.937 231.182 166.937 230.896C166.937 230.65 166.984 230.447 167.079 230.288C167.174 230.129 167.301 230.003 167.462 229.91C167.623 229.817 167.803 229.747 168.002 229.7C168.201 229.653 168.404 229.617 168.61 229.592C168.871 229.562 169.084 229.537 169.246 229.518C169.409 229.497 169.528 229.464 169.602 229.419C169.675 229.373 169.712 229.299 169.712 229.197V229.177C169.712 228.929 169.642 228.737 169.502 228.6C169.364 228.464 169.157 228.396 168.883 228.396C168.597 228.396 168.371 228.459 168.207 228.586C168.044 228.711 167.931 228.85 167.869 229.004L167.07 228.822C167.165 228.557 167.303 228.343 167.485 228.18C167.669 228.015 167.88 227.896 168.119 227.822C168.357 227.746 168.608 227.708 168.871 227.708C169.046 227.708 169.23 227.729 169.425 227.771C169.622 227.811 169.806 227.885 169.977 227.993C170.149 228.1 170.29 228.255 170.4 228.456C170.51 228.654 170.565 228.913 170.565 229.231V232.129H169.735V231.532H169.701C169.646 231.642 169.564 231.75 169.454 231.856C169.344 231.962 169.203 232.05 169.031 232.12C168.858 232.19 168.652 232.225 168.411 232.225ZM168.596 231.544C168.831 231.544 169.031 231.497 169.198 231.404C169.367 231.312 169.495 231.19 169.582 231.041C169.671 230.889 169.715 230.727 169.715 230.555V229.993C169.685 230.023 169.626 230.051 169.539 230.078C169.454 230.102 169.356 230.124 169.246 230.143C169.137 230.16 169.03 230.176 168.925 230.191C168.821 230.205 168.734 230.216 168.664 230.225C168.499 230.246 168.349 230.281 168.212 230.331C168.078 230.38 167.97 230.451 167.888 230.544C167.809 230.635 167.769 230.756 167.769 230.907C167.769 231.118 167.847 231.277 168.002 231.385C168.157 231.491 168.355 231.544 168.596 231.544ZM172.161 229.538V232.129H171.312V227.765H172.127V228.475H172.181C172.282 228.244 172.439 228.059 172.653 227.919C172.869 227.779 173.141 227.708 173.468 227.708C173.766 227.708 174.026 227.771 174.25 227.896C174.473 228.019 174.646 228.203 174.769 228.447C174.893 228.691 174.954 228.993 174.954 229.353V232.129H174.105V229.456C174.105 229.139 174.022 228.892 173.857 228.714C173.693 228.534 173.466 228.444 173.179 228.444C172.982 228.444 172.806 228.487 172.653 228.572C172.501 228.657 172.381 228.782 172.292 228.947C172.205 229.11 172.161 229.307 172.161 229.538ZM177.547 232.217C177.138 232.217 176.781 232.123 176.476 231.936C176.171 231.748 175.935 231.486 175.766 231.149C175.598 230.812 175.513 230.418 175.513 229.967C175.513 229.514 175.598 229.118 175.766 228.779C175.935 228.44 176.171 228.177 176.476 227.99C176.781 227.802 177.138 227.708 177.547 227.708C177.956 227.708 178.313 227.802 178.618 227.99C178.923 228.177 179.16 228.44 179.329 228.779C179.497 229.118 179.581 229.514 179.581 229.967C179.581 230.418 179.497 230.812 179.329 231.149C179.16 231.486 178.923 231.748 178.618 231.936C178.313 232.123 177.956 232.217 177.547 232.217ZM177.55 231.504C177.815 231.504 178.035 231.434 178.209 231.294C178.384 231.154 178.512 230.967 178.596 230.734C178.681 230.501 178.723 230.244 178.723 229.964C178.723 229.686 178.681 229.43 178.596 229.197C178.512 228.962 178.384 228.774 178.209 228.632C178.035 228.49 177.815 228.419 177.55 228.419C177.283 228.419 177.062 228.49 176.885 228.632C176.711 228.774 176.581 228.962 176.496 229.197C176.413 229.43 176.371 229.686 176.371 229.964C176.371 230.244 176.413 230.501 176.496 230.734C176.581 230.967 176.711 231.154 176.885 231.294C177.062 231.434 177.283 231.504 177.55 231.504ZM180.995 229.538V232.129H180.146V227.765H180.961V228.475H181.015C181.115 228.244 181.272 228.059 181.486 227.919C181.702 227.779 181.974 227.708 182.302 227.708C182.599 227.708 182.86 227.771 183.083 227.896C183.307 228.019 183.48 228.203 183.603 228.447C183.726 228.691 183.788 228.993 183.788 229.353V232.129H182.938V229.456C182.938 229.139 182.856 228.892 182.691 228.714C182.526 228.534 182.3 228.444 182.012 228.444C181.815 228.444 181.64 228.487 181.486 228.572C181.335 228.657 181.215 228.782 181.126 228.947C181.039 229.11 180.995 229.307 180.995 229.538Z" fill="#262626"/>
</g>
<rect x="-24.5" y="169.379" width="47" height="47" rx="11.5" stroke="#1B1B1B"/>
<rect x="31" y="168.879" width="196" height="48" rx="12" fill="#1B1B1B"/>
<path d="M61.3732 186.543C61.3275 186.493 61.2721 186.452 61.2104 186.424C61.1487 186.396 61.0819 186.381 61.0141 186.379C60.9463 186.377 60.8788 186.39 60.8158 186.415C60.7528 186.44 60.6956 186.478 60.6475 186.525L60.261 186.91C60.2141 186.957 60.1878 187.021 60.1878 187.087C60.1878 187.153 60.2141 187.217 60.261 187.264L60.6154 187.617C60.6386 187.641 60.6662 187.659 60.6966 187.672C60.727 187.684 60.7596 187.691 60.7925 187.691C60.8255 187.691 60.8581 187.684 60.8885 187.672C60.9189 187.659 60.9465 187.641 60.9697 187.617L61.3466 187.242C61.5372 187.052 61.555 186.742 61.3732 186.543ZM59.4794 187.691L53.8382 193.323C53.804 193.357 53.7791 193.399 53.766 193.445L53.505 194.223C53.4988 194.244 53.4983 194.266 53.5038 194.287C53.5092 194.309 53.5202 194.328 53.5358 194.344C53.5513 194.359 53.5708 194.37 53.5921 194.376C53.6134 194.381 53.6358 194.381 53.6569 194.375L54.4335 194.114C54.4799 194.1 54.5222 194.076 54.5563 194.041L60.1875 188.4C60.2396 188.347 60.2689 188.276 60.2689 188.202C60.2689 188.128 60.2396 188.057 60.1875 188.004L59.8766 187.691C59.8239 187.639 59.7525 187.609 59.678 187.609C59.6036 187.609 59.5321 187.639 59.4794 187.691Z" fill="white" fill-opacity="0.5"/>
<path d="M59.0731 190.931L55.2641 194.747C55.1168 194.895 54.9359 195.004 54.7369 195.066L53.9275 195.337C53.7354 195.392 53.5323 195.394 53.3392 195.343C53.1461 195.293 52.9698 195.192 52.8287 195.051C52.6876 194.91 52.5866 194.733 52.5363 194.54C52.4859 194.347 52.4879 194.144 52.5422 193.952L52.8131 193.143C52.8749 192.944 52.9842 192.763 53.1316 192.615L56.9481 188.806C56.9831 188.771 57.0069 188.726 57.0166 188.678C57.0263 188.629 57.0214 188.579 57.0025 188.533C56.9836 188.488 56.9515 188.449 56.9104 188.421C56.8693 188.394 56.821 188.379 56.7716 188.379H50.25C49.7859 188.379 49.3408 188.563 49.0126 188.891C48.6844 189.22 48.5 189.665 48.5 190.129V197.629C48.5 198.093 48.6844 198.538 49.0126 198.866C49.3408 199.195 49.7859 199.379 50.25 199.379H57.75C58.2141 199.379 58.6592 199.195 58.9874 198.866C59.3156 198.538 59.5 198.093 59.5 197.629V191.107C59.5 191.058 59.4853 191.01 59.4578 190.968C59.4303 190.927 59.3912 190.895 59.3456 190.876C59.2999 190.858 59.2496 190.853 59.2011 190.862C59.1526 190.872 59.1081 190.896 59.0731 190.931Z" fill="white" fill-opacity="0.5"/>
<path d="M74.0198 196.879L71.5994 188.152H72.9843L74.6846 194.91H74.7656L76.5341 188.152H77.9062L79.6747 194.914H79.7556L81.4517 188.152H82.8409L80.4162 196.879H79.0909L77.2542 190.342H77.186L75.3494 196.879H74.0198ZM83.1451 196.879V190.333H84.3766V191.373H84.4448C84.5641 191.021 84.7743 190.744 85.0755 190.542C85.3795 190.338 85.7232 190.235 86.1067 190.235C86.1863 190.235 86.28 190.238 86.388 190.244C86.4988 190.25 86.5854 190.257 86.6479 190.265V191.484C86.5968 191.47 86.5059 191.454 86.3752 191.437C86.2445 191.417 86.1138 191.407 85.9831 191.407C85.682 191.407 85.4135 191.471 85.1778 191.599C84.9448 191.724 84.7601 191.899 84.6238 192.123C84.4874 192.345 84.4192 192.598 84.4192 192.882V196.879H83.1451ZM87.3665 196.879V190.333H88.6407V196.879H87.3665ZM88.01 189.324C87.7884 189.324 87.5981 189.25 87.439 189.102C87.2827 188.951 87.2046 188.772 87.2046 188.565C87.2046 188.355 87.2827 188.176 87.439 188.028C87.5981 187.877 87.7884 187.802 88.01 187.802C88.2316 187.802 88.4205 187.877 88.5768 188.028C88.7359 188.176 88.8154 188.355 88.8154 188.565C88.8154 188.772 88.7359 188.951 88.5768 189.102C88.4205 189.25 88.2316 189.324 88.01 189.324ZM93.0262 190.333V191.356H89.4509V190.333H93.0262ZM90.4098 188.765H91.6839V194.957C91.6839 195.204 91.7208 195.39 91.7947 195.515C91.8686 195.637 91.9637 195.721 92.0802 195.767C92.1995 195.809 92.3288 195.831 92.468 195.831C92.5703 195.831 92.6598 195.824 92.7365 195.809C92.8132 195.795 92.8728 195.784 92.9154 195.775L93.1455 196.828C93.0717 196.856 92.9666 196.885 92.8302 196.913C92.6938 196.944 92.5234 196.961 92.3188 196.964C91.9836 196.97 91.6711 196.91 91.3813 196.785C91.0916 196.66 90.8572 196.467 90.6782 196.206C90.4992 195.944 90.4098 195.616 90.4098 195.221V188.765ZM96.8024 197.011C96.1575 197.011 95.6021 196.873 95.1362 196.598C94.6731 196.319 94.3152 195.929 94.0623 195.426C93.8123 194.92 93.6873 194.328 93.6873 193.649C93.6873 192.978 93.8123 192.387 94.0623 191.876C94.3152 191.365 94.6674 190.966 95.1191 190.679C95.5737 190.392 96.1049 190.248 96.7129 190.248C97.0822 190.248 97.4402 190.309 97.7868 190.431C98.1334 190.554 98.4444 190.745 98.72 191.007C98.9956 191.268 99.2129 191.608 99.372 192.025C99.5311 192.44 99.6106 192.944 99.6106 193.538V193.99H94.4075V193.035H98.362C98.362 192.7 98.2939 192.403 98.1575 192.145C98.0211 191.883 97.8294 191.677 97.5822 191.527C97.3379 191.376 97.051 191.301 96.7214 191.301C96.3635 191.301 96.051 191.389 95.7839 191.565C95.5197 191.738 95.3152 191.966 95.1703 192.247C95.0282 192.525 94.9572 192.828 94.9572 193.154V193.9C94.9572 194.338 95.0339 194.71 95.1873 195.017C95.3436 195.324 95.5609 195.558 95.8393 195.72C96.1177 195.879 96.443 195.958 96.8152 195.958C97.0566 195.958 97.2768 195.924 97.4757 195.856C97.6745 195.785 97.8464 195.68 97.9913 195.541C98.1362 195.402 98.247 195.23 98.3237 195.025L99.5297 195.243C99.4331 195.598 99.2598 195.909 99.0098 196.176C98.7626 196.44 98.4515 196.646 98.0765 196.794C97.7044 196.939 97.2797 197.011 96.8024 197.011ZM105.337 197.024C104.922 197.024 104.547 196.947 104.212 196.794C103.877 196.637 103.611 196.412 103.415 196.116C103.222 195.821 103.125 195.458 103.125 195.029C103.125 194.66 103.196 194.356 103.338 194.118C103.48 193.879 103.672 193.69 103.914 193.551C104.155 193.412 104.425 193.306 104.723 193.235C105.022 193.164 105.326 193.11 105.635 193.074C106.027 193.028 106.345 192.991 106.59 192.963C106.834 192.931 107.012 192.882 107.122 192.814C107.233 192.745 107.289 192.635 107.289 192.481V192.451C107.289 192.079 107.184 191.791 106.973 191.586C106.766 191.382 106.456 191.279 106.044 191.279C105.615 191.279 105.277 191.375 105.03 191.565C104.786 191.752 104.617 191.961 104.523 192.191L103.326 191.919C103.468 191.521 103.675 191.2 103.948 190.956C104.223 190.708 104.54 190.529 104.898 190.419C105.256 190.305 105.632 190.248 106.027 190.248C106.289 190.248 106.566 190.279 106.858 190.342C107.154 190.402 107.429 190.512 107.685 190.674C107.943 190.836 108.155 191.068 108.32 191.369C108.485 191.667 108.567 192.055 108.567 192.532V196.879H107.323V195.984H107.272C107.189 196.149 107.066 196.311 106.901 196.47C106.736 196.629 106.524 196.761 106.266 196.866C106.007 196.971 105.698 197.024 105.337 197.024ZM105.614 196.001C105.966 196.001 106.267 195.931 106.517 195.792C106.77 195.653 106.962 195.471 107.093 195.247C107.226 195.02 107.293 194.777 107.293 194.518V193.674C107.247 193.72 107.159 193.762 107.029 193.802C106.901 193.839 106.755 193.872 106.59 193.9C106.425 193.926 106.264 193.95 106.108 193.973C105.952 193.993 105.821 194.01 105.716 194.024C105.469 194.055 105.243 194.108 105.039 194.181C104.837 194.255 104.675 194.362 104.553 194.501C104.434 194.637 104.374 194.819 104.374 195.047C104.374 195.362 104.49 195.6 104.723 195.762C104.956 195.922 105.253 196.001 105.614 196.001ZM115.122 197.007C114.594 197.007 114.122 196.872 113.707 196.602C113.296 196.329 112.972 195.941 112.736 195.439C112.503 194.933 112.386 194.326 112.386 193.619C112.386 192.912 112.504 192.306 112.74 191.804C112.979 191.301 113.305 190.916 113.72 190.649C114.135 190.382 114.605 190.248 115.131 190.248C115.537 190.248 115.864 190.316 116.111 190.453C116.361 190.586 116.554 190.743 116.69 190.922C116.83 191.1 116.938 191.258 117.014 191.395H117.091V188.152H118.365V196.879H117.121V195.86H117.014C116.938 196 116.827 196.159 116.682 196.338C116.54 196.517 116.344 196.673 116.094 196.806C115.844 196.94 115.52 197.007 115.122 197.007ZM115.403 195.92C115.77 195.92 116.08 195.824 116.332 195.63C116.588 195.434 116.781 195.163 116.912 194.816C117.046 194.47 117.112 194.066 117.112 193.606C117.112 193.152 117.047 192.754 116.916 192.413C116.786 192.072 116.594 191.806 116.341 191.616C116.088 191.426 115.776 191.331 115.403 191.331C115.02 191.331 114.7 191.43 114.445 191.629C114.189 191.828 113.996 192.099 113.865 192.443C113.737 192.787 113.673 193.174 113.673 193.606C113.673 194.044 113.739 194.437 113.869 194.787C114 195.136 114.193 195.413 114.449 195.618C114.707 195.819 115.026 195.92 115.403 195.92ZM122.557 197.011C121.943 197.011 121.408 196.87 120.95 196.589C120.493 196.308 120.138 195.914 119.885 195.409C119.632 194.903 119.506 194.312 119.506 193.636C119.506 192.957 119.632 192.363 119.885 191.855C120.138 191.346 120.493 190.951 120.95 190.67C121.408 190.389 121.943 190.248 122.557 190.248C123.17 190.248 123.706 190.389 124.163 190.67C124.621 190.951 124.976 191.346 125.229 191.855C125.481 192.363 125.608 192.957 125.608 193.636C125.608 194.312 125.481 194.903 125.229 195.409C124.976 195.914 124.621 196.308 124.163 196.589C123.706 196.87 123.17 197.011 122.557 197.011ZM122.561 195.941C122.959 195.941 123.288 195.836 123.55 195.626C123.811 195.416 124.004 195.136 124.129 194.787C124.257 194.437 124.321 194.052 124.321 193.632C124.321 193.214 124.257 192.831 124.129 192.481C124.004 192.129 123.811 191.846 123.55 191.633C123.288 191.42 122.959 191.314 122.561 191.314C122.16 191.314 121.828 191.42 121.564 191.633C121.302 191.846 121.108 192.129 120.98 192.481C120.855 192.831 120.793 193.214 120.793 193.632C120.793 194.052 120.855 194.437 120.98 194.787C121.108 195.136 121.302 195.416 121.564 195.626C121.828 195.836 122.16 195.941 122.561 195.941ZM129.403 197.011C128.77 197.011 128.224 196.868 127.767 196.581C127.312 196.291 126.963 195.892 126.719 195.383C126.474 194.875 126.352 194.292 126.352 193.636C126.352 192.971 126.477 192.385 126.727 191.876C126.977 191.365 127.329 190.966 127.784 190.679C128.238 190.392 128.774 190.248 129.39 190.248C129.888 190.248 130.331 190.341 130.72 190.525C131.109 190.707 131.423 190.963 131.662 191.292C131.903 191.622 132.047 192.007 132.092 192.447H130.852C130.784 192.14 130.628 191.876 130.383 191.654C130.142 191.433 129.818 191.322 129.412 191.322C129.057 191.322 128.746 191.416 128.478 191.603C128.214 191.788 128.008 192.052 127.861 192.396C127.713 192.737 127.639 193.14 127.639 193.606C127.639 194.083 127.711 194.495 127.856 194.842C128.001 195.189 128.206 195.457 128.47 195.647C128.737 195.838 129.051 195.933 129.412 195.933C129.653 195.933 129.872 195.889 130.068 195.801C130.267 195.71 130.433 195.581 130.567 195.413C130.703 195.245 130.798 195.044 130.852 194.808H132.092C132.047 195.231 131.909 195.609 131.679 195.941C131.449 196.274 131.14 196.535 130.754 196.725C130.371 196.916 129.92 197.011 129.403 197.011ZM137.976 191.931L136.821 192.136C136.772 191.988 136.696 191.848 136.591 191.714C136.488 191.581 136.349 191.471 136.173 191.386C135.997 191.301 135.777 191.258 135.512 191.258C135.152 191.258 134.851 191.339 134.609 191.501C134.368 191.66 134.247 191.866 134.247 192.119C134.247 192.338 134.328 192.514 134.49 192.647C134.652 192.781 134.913 192.89 135.274 192.975L136.314 193.214C136.916 193.353 137.365 193.568 137.66 193.858C137.956 194.147 138.103 194.524 138.103 194.987C138.103 195.379 137.99 195.728 137.762 196.035C137.538 196.339 137.224 196.578 136.821 196.751C136.42 196.924 135.956 197.011 135.427 197.011C134.694 197.011 134.096 196.855 133.633 196.542C133.17 196.227 132.886 195.779 132.781 195.2L134.012 195.012C134.089 195.333 134.247 195.576 134.485 195.741C134.724 195.903 135.035 195.984 135.419 195.984C135.836 195.984 136.17 195.897 136.42 195.724C136.67 195.548 136.795 195.333 136.795 195.081C136.795 194.876 136.718 194.704 136.565 194.565C136.414 194.426 136.183 194.321 135.87 194.25L134.762 194.007C134.152 193.868 133.7 193.646 133.407 193.342C133.118 193.038 132.973 192.653 132.973 192.187C132.973 191.801 133.081 191.463 133.297 191.173C133.512 190.883 133.811 190.657 134.191 190.495C134.572 190.331 135.008 190.248 135.5 190.248C136.207 190.248 136.764 190.402 137.17 190.708C137.576 191.012 137.845 191.42 137.976 191.931Z" fill="white" fill-opacity="0.5"/>
<rect x="235" y="168.879" width="48" height="48" rx="12" fill="#1B1B1B"/>
<rect x="291.5" y="169.379" width="47" height="47" rx="11.5" stroke="#1B1B1B"/>
<rect x="347" y="168.879" width="48" height="48" rx="12" fill="#1B1B1B"/>
<path d="M60.8371 49.5484L65.1266 47.8434C65.5628 47.6794 65.916 47.3489 66.1085 46.9245C66.301 46.5001 66.3171 46.0166 66.1531 45.5804C65.9891 45.1442 65.6586 44.791 65.2342 44.5985C64.8098 44.406 64.3263 44.3899 63.8901 44.5539L63.3551 44.7549L65.9846 39.5549C66.0917 39.3487 66.1568 39.1233 66.1762 38.8918C66.1955 38.6602 66.1688 38.4272 66.0975 38.206C66.0262 37.9849 65.9117 37.7801 65.7607 37.6035C65.6097 37.4269 65.4252 37.282 65.2178 37.1772C65.0105 37.0724 64.7844 37.0097 64.5526 36.9929C64.3209 36.9761 64.0881 37.0054 63.8678 37.0791C63.6474 37.1528 63.4439 37.2695 63.269 37.4224C63.094 37.5753 62.9511 37.7614 62.8486 37.9699L61.8571 39.9294C61.6372 39.82 61.3967 39.7581 61.1512 39.7478C60.9058 39.7374 60.661 39.7789 60.4326 39.8694C60.2585 39.666 60.0401 39.5052 59.7941 39.3994C59.5557 39.3006 59.2984 39.2557 59.0406 39.2679C58.879 39.0988 58.6852 38.9638 58.4706 38.8709C58.259 38.7786 58.0313 38.729 57.8005 38.7249C57.5697 38.7207 57.3404 38.7621 57.1256 38.8468C56.9108 38.9314 56.7149 39.0575 56.5489 39.218C56.383 39.3785 56.2504 39.5701 56.1586 39.7819L53.5371 45.8129" stroke="white" stroke-width="0.5" stroke-linecap="round" stroke-linejoin="round"/>
<path d="M65.0997 41.3054C65.7156 41.1387 66.2501 40.7541 66.6038 40.2231C66.9575 39.692 67.1064 39.0507 67.0229 38.4181C66.9394 37.7855 66.6291 37.2048 66.1496 36.7838C65.6702 36.3627 65.0543 36.13 64.4162 36.1289C63.9878 36.1288 63.5658 36.2333 63.1869 36.4332C62.808 36.6332 62.4836 36.9225 62.2418 37.2763C62.0001 37.63 61.8483 38.0373 61.7997 38.463C61.7511 38.8887 61.807 39.3198 61.9627 39.7189M54.5812 45.8614L60.8372 49.5479C61.0718 49.6863 61.2482 49.905 61.3337 50.1636C61.4192 50.4222 61.408 50.703 61.3022 50.9539L59.6172 54.9419C59.5554 55.0881 59.4632 55.2196 59.3469 55.3276C59.2306 55.4357 59.0927 55.5179 58.9423 55.5689C58.7919 55.6198 58.6325 55.6384 58.4744 55.6233C58.3164 55.6082 58.1633 55.5599 58.0252 55.4814L51.5182 51.7764C51.27 51.6349 51.0848 51.4043 51.0004 51.1313C50.916 50.8582 50.9386 50.5633 51.0637 50.3064L52.9997 46.3369C53.0678 46.1976 53.164 46.0738 53.2822 45.9734C53.4004 45.873 53.5381 45.7982 53.6866 45.7535C53.8351 45.7089 53.9912 45.6954 54.1452 45.714C54.2991 45.7325 54.4476 45.7827 54.5812 45.8614Z" stroke="white" stroke-width="0.5" stroke-linecap="round" stroke-linejoin="round"/>
</g>
<defs>
<clipPath id="clip0_24_3949">
<rect y="0.878906" width="360" height="336" rx="120" fill="white"/>
</clipPath>
<clipPath id="clip1_24_3949">
<rect x="254" y="109.379" width="48" height="13" rx="4" fill="white"/>
</clipPath>
<clipPath id="clip2_24_3949">
<rect x="145.5" y="222.629" width="48" height="13" rx="4" fill="white"/>
</clipPath>
</defs>
</svg>
