<svg width="18" height="18" viewBox="0 0 18 18" fill="none" xmlns="http://www.w3.org/2000/svg">
<path d="M13.25 2H4.75C3.233 2 2 3.233 2 4.75V13.25C2 14.767 3.233 16 4.75 16H13.25C14.767 16 16 14.767 16 13.25V4.75C16 3.233 14.767 2 13.25 2ZM13 9.75H12.015L10.951 12.519C10.84 12.809 10.561 13 10.251 13C9.941 13 9.662 12.809 9.551 12.519L7.751 7.839L7.201 9.269C7.09 9.559 6.811 9.75 6.501 9.75H5.001C4.587 9.75 4.251 9.414 4.251 9C4.251 8.586 4.587 8.25 5.001 8.25H5.986L7.05 5.481C7.273 4.901 8.228 4.901 8.45 5.481L10.25 10.161L10.8 8.731C10.911 8.441 11.19 8.25 11.5 8.25H13C13.414 8.25 13.75 8.586 13.75 9C13.75 9.414 13.414 9.75 13 9.75Z" fill="white"/>
</svg>
