<svg width="16" height="18" viewBox="0 0 16 18" fill="none" xmlns="http://www.w3.org/2000/svg">
<mask id="mask0_1_3301" style="mask-type:luminance" maskUnits="userSpaceOnUse" x="0" y="1" width="16" height="17">
<path d="M16 1.58398H0V17.584H16V1.58398Z" fill="white"/>
</mask>
<g mask="url(#mask0_1_3301)">
<path d="M7.60202 11.0579C7.66069 11.0739 7.71936 11.081 7.77713 11.081C8.07047 11.081 8.33891 10.8863 8.4198 10.5895C8.51669 10.2348 8.30691 9.8677 7.95136 9.7717C7.43669 9.63126 6.96291 9.41081 6.53891 9.12637C7.20647 8.35125 7.72025 7.33526 7.92113 6.02859H9.11047C9.47847 6.02859 9.77713 5.72992 9.77713 5.36192C9.77713 4.99392 9.47847 4.69526 9.11047 4.69526H6.22158V3.58414C6.22158 3.21614 5.92291 2.91748 5.55491 2.91748C5.18691 2.91748 4.88825 3.21614 4.88825 3.58414V4.69526H1.99936C1.63136 4.69526 1.33269 4.99392 1.33269 5.36192C1.33269 5.72992 1.63136 6.02859 1.99936 6.02859H3.18425C3.34691 7.19126 3.82513 8.25081 4.55491 9.11214C3.34513 9.90859 2.05091 10.0233 1.95402 10.0304C1.58691 10.0553 1.30869 10.3726 1.33358 10.7406C1.35758 11.0926 1.65002 11.3628 1.99847 11.3628C2.01358 11.3628 2.02869 11.3628 2.0438 11.3619C2.98602 11.2988 4.35847 10.9246 5.55136 10.0428C6.15491 10.4935 6.83847 10.8499 7.60202 11.0579ZM6.57269 6.02859C6.3958 6.96459 6.01802 7.68014 5.55225 8.23037C5.03047 7.60726 4.67047 6.85526 4.52202 6.02859H6.57269Z" fill="white"/>
<path d="M14.6233 15.3506L11.9566 8.23953C11.8589 7.97908 11.61 7.80664 11.3326 7.80664H10.8882C10.6109 7.80664 10.362 7.97908 10.2642 8.23953L7.59752 15.3506C7.46774 15.6955 7.64286 16.0795 7.98774 16.2084C8.33086 16.3373 8.71663 16.1631 8.84552 15.8182L9.51663 14.0288H12.7042L13.3753 15.8182C13.4757 16.0857 13.7291 16.2511 13.9993 16.2511C14.0766 16.2511 14.1566 16.2377 14.2331 16.2084C14.578 16.0786 14.7522 15.6946 14.6233 15.3506ZM10.0171 12.6955L11.1104 9.77908L12.2037 12.6955H10.0171Z" fill="white"/>
</g>
</svg>
