<svg width="20" height="19" viewBox="0 0 20 19" fill="none" xmlns="http://www.w3.org/2000/svg">
<mask id="mask0_16_3213" style="mask-type:luminance" maskUnits="userSpaceOnUse" x="1" y="0" width="19" height="19">
<path d="M19.0898 0.654297H1.08984V18.6543H19.0898V0.654297Z" fill="white"/>
</mask>
<g mask="url(#mask0_16_3213)">
<path d="M14.3398 2.6543H5.83984C4.32284 2.6543 3.08984 3.8873 3.08984 5.4043V13.9043C3.08984 15.4213 4.32284 16.6543 5.83984 16.6543H14.3398C15.8568 16.6543 17.0898 15.4213 17.0898 13.9043V5.4043C17.0898 3.8873 15.8568 2.6543 14.3398 2.6543ZM7.36984 13.4343C7.22384 13.5803 7.03184 13.6543 6.83984 13.6543C6.64784 13.6543 6.45584 13.5813 6.30984 13.4343C6.01684 13.1413 6.01684 12.6663 6.30984 12.3733L8.27984 10.4033L6.30984 8.4333C6.01684 8.1403 6.01684 7.6653 6.30984 7.3723C6.60284 7.0793 7.07784 7.0793 7.37084 7.3723L9.87084 9.8723C10.1638 10.1653 10.1638 10.6403 9.87084 10.9333L7.37084 13.4333L7.36984 13.4343ZM13.3398 13.6543H10.8398C10.4258 13.6543 10.0898 13.3183 10.0898 12.9043C10.0898 12.4903 10.4258 12.1543 10.8398 12.1543H13.3398C13.7538 12.1543 14.0898 12.4903 14.0898 12.9043C14.0898 13.3183 13.7538 13.6543 13.3398 13.6543Z" fill="#D4D4D4"/>
</g>
</svg>
