<svg width="19" height="19" viewBox="0 0 19 19" fill="none" xmlns="http://www.w3.org/2000/svg">
<mask id="mask0_16_3235" style="mask-type:luminance" maskUnits="userSpaceOnUse" x="0" y="0" width="19" height="19">
<path d="M18.5996 0.654297H0.599609V18.6543H18.5996V0.654297Z" fill="white"/>
</mask>
<g mask="url(#mask0_16_3235)">
<path d="M15.0866 6.0813L11.1726 2.1673C10.8416 1.8363 10.4026 1.6543 9.93561 1.6543H4.34961C2.83261 1.6543 1.59961 2.8873 1.59961 4.4043V14.9043C1.59961 16.4213 2.83261 17.6543 4.34961 17.6543H9.82461C9.84761 17.4543 9.89061 17.2533 9.96861 17.0603L10.5986 15.5003C10.7626 15.0943 11.0016 14.7323 11.3086 14.4243L15.0016 10.7303C15.1806 10.5513 15.3846 10.4093 15.5986 10.2843V7.3173C15.5986 6.8503 15.4166 6.4103 15.0856 6.0803L15.0866 6.0813ZM4.12761 8.3023C4.00261 8.0853 4.00461 7.8163 4.13061 7.6003L5.46061 5.3213C5.70961 4.8933 6.41761 4.8913 6.66861 5.3213L7.99861 7.6013C8.12461 7.8163 8.12561 8.0843 8.00161 8.3023C7.87761 8.5203 7.64461 8.6543 7.39461 8.6543H4.73561C4.48561 8.6543 4.25161 8.5193 4.12761 8.3023ZM9.09961 13.2543C9.09961 13.7503 8.69561 14.1543 8.19961 14.1543H6.50061C6.00461 14.1543 5.60061 13.7503 5.60061 13.2543V11.5543C5.60061 11.0583 6.00461 10.6543 6.50061 10.6543H8.19961C8.69561 10.6543 9.09961 11.0583 9.09961 11.5543V13.2543ZM11.0996 10.6543C9.99661 10.6543 9.09961 9.7573 9.09961 8.6543C9.09961 7.5513 9.99661 6.6543 11.0996 6.6543C12.2026 6.6543 13.0996 7.5513 13.0996 8.6543C13.0996 9.7573 12.2026 10.6543 11.0996 10.6543Z" fill="#D4D4D4"/>
<path d="M18.1602 11.7971C17.5972 11.2341 16.6222 11.2311 16.0622 11.7921L12.3692 15.4861C12.2052 15.6501 12.0772 15.8441 11.9892 16.0631L11.3592 17.6241C11.2472 17.9011 11.3111 18.2191 11.5211 18.4321C11.6651 18.5781 11.8582 18.6551 12.0552 18.6551C12.1472 18.6551 12.2392 18.6381 12.3272 18.6041L13.8421 18.0141C14.0691 17.9261 14.2712 17.7931 14.4442 17.6211L18.1691 13.8961C18.4501 13.6141 18.6032 13.2421 18.6012 12.8461C18.5992 12.4511 18.4432 12.0791 18.1632 11.7991L18.1602 11.7971Z" fill="#D4D4D4"/>
</g>
</svg>
