<svg width="16" height="18" viewBox="0 0 16 18" fill="none" xmlns="http://www.w3.org/2000/svg">
<mask id="mask0_1_3329" style="mask-type:luminance" maskUnits="userSpaceOnUse" x="0" y="1" width="16" height="17">
<path d="M16 1.58398H0V17.584H16V1.58398Z" fill="white"/>
</mask>
<g mask="url(#mask0_1_3329)">
<path d="M7.99904 7.36155C8.9946 7.36155 9.84971 6.76155 10.231 5.90555C11.5093 6.56511 12.4595 7.76866 12.7724 9.19089C12.8408 9.502 13.1173 9.71355 13.4222 9.71355C13.4702 9.71355 13.5182 9.70911 13.567 9.69755C13.9262 9.61844 14.1528 9.262 14.0737 8.90289C13.639 6.93666 12.2479 5.302 10.4026 4.52511C10.2133 3.36422 9.21149 2.47266 7.99815 2.47266C6.64971 2.47266 5.55371 3.56866 5.55371 4.91711C5.55371 6.26555 6.6506 7.36155 7.99904 7.36155Z" fill="white"/>
<path d="M5.49844 11.6931C5.00067 10.8318 4.05311 10.39 3.12156 10.4887C3.05311 9.05134 3.62022 7.62734 4.694 6.64511C4.966 6.39711 4.98467 5.97489 4.73667 5.70289C4.48778 5.43178 4.06644 5.41223 3.79444 5.66111C2.30822 7.02023 1.58822 9.04245 1.838 11.0282C1.44244 11.35 1.15444 11.7811 1.01933 12.2833C0.851334 12.9135 0.937556 13.5731 1.26378 14.1375C1.59 14.7029 2.11711 15.1082 2.74822 15.2771C2.958 15.3331 3.17222 15.3615 3.38467 15.3615C3.80867 15.3615 4.22555 15.2504 4.60244 15.0326C5.76867 14.3598 6.17133 12.862 5.49755 11.694L5.49844 11.6931Z" fill="white"/>
<path d="M14.9797 12.2843C14.8109 11.654 14.4055 11.126 13.8411 10.7998C12.6749 10.1252 11.1753 10.5279 10.5015 11.6949C10.0037 12.5572 10.0962 13.5972 10.6473 14.3545C9.43842 15.1323 7.92286 15.3527 6.53086 14.9136C6.17797 14.8034 5.80553 14.998 5.6953 15.3483C5.58419 15.6994 5.77886 16.0736 6.12997 16.1847C6.73708 16.3767 7.36375 16.47 7.98775 16.47C9.34331 16.47 10.6829 16.0247 11.7771 15.19C12.0482 15.2914 12.3282 15.3607 12.6153 15.3607C12.8277 15.3607 13.0411 15.3332 13.2517 15.2763C13.8829 15.1074 14.41 14.702 14.7362 14.1376C15.0624 13.5732 15.1495 12.9136 14.9806 12.2834L14.9797 12.2843Z" fill="white"/>
</g>
</svg>
