<svg width="17" height="18" viewBox="0 0 17 18" fill="none" xmlns="http://www.w3.org/2000/svg">
<mask id="mask0_1_3287" style="mask-type:luminance" maskUnits="userSpaceOnUse" x="0" y="1" width="17" height="17">
<path d="M16.5703 1.58398H0.570312V17.584H16.5703V1.58398Z" fill="white"/>
</mask>
<g mask="url(#mask0_1_3287)">
<path d="M6.5701 4.69489H5.01454V3.13933C5.01454 2.77133 4.71587 2.47266 4.34787 2.47266C3.97987 2.47266 3.68121 2.77133 3.68121 3.13933V4.69489H2.12565C1.75765 4.69489 1.45898 4.99355 1.45898 5.36155C1.45898 5.72955 1.75765 6.02822 2.12565 6.02822H3.68121V7.58377C3.68121 7.95177 3.97987 8.25044 4.34787 8.25044C4.71587 8.25044 5.01454 7.95177 5.01454 7.58377V6.02822H6.5701C6.9381 6.02822 7.23676 5.72955 7.23676 5.36155C7.23676 4.99355 6.9381 4.69489 6.5701 4.69489Z" fill="white"/>
<path d="M12.3563 12.1242C12.0363 12.1242 11.6852 12.1038 11.2968 12.0629C10.9306 12.0247 10.6657 11.6958 10.7039 11.3295C10.7421 10.9633 11.0675 10.6975 11.4372 10.7367C12.6861 10.8691 13.3555 10.7518 13.8328 10.4602C14.279 10.0887 14.6319 9.57313 14.8248 8.83268C14.9483 8.28868 15.0275 7.76246 15.103 7.25402C15.223 6.45313 15.3359 5.69757 15.5928 5.24868C15.7163 5.03357 15.7101 4.7669 15.5759 4.55802C15.4426 4.34913 15.2052 4.22646 14.9563 4.25313C4.58923 5.15979 3.25412 15.8451 3.24168 15.9527C3.1999 16.318 3.46212 16.6478 3.82746 16.6904C3.85323 16.6931 3.87901 16.6949 3.90479 16.6949C4.23812 16.6949 4.52701 16.4442 4.56612 16.1047C4.58123 15.9775 4.72079 14.9287 5.19812 13.5447C5.91812 13.8673 6.63101 14.0095 6.67279 14.0167C7.4319 14.1553 8.13323 14.2247 8.77679 14.2247C10.1163 14.2247 11.2035 13.9242 12.0212 13.3269C12.471 12.998 12.8195 12.574 13.0861 12.0771C12.8603 12.1047 12.6221 12.1233 12.3555 12.1233L12.3563 12.1242Z" fill="white"/>
</g>
</svg>
