<svg width="18" height="18" viewBox="0 0 18 18" fill="none" xmlns="http://www.w3.org/2000/svg">
<path d="M6.25 2H3.75C2.785 2 2 2.785 2 3.75V13C2 14.654 3.346 16 5 16C6.654 16 8 14.654 8 13V3.75C8 2.785 7.215 2 6.25 2ZM5 13.75C4.586 13.75 4.25 13.414 4.25 13C4.25 12.586 4.586 12.25 5 12.25C5.414 12.25 5.75 12.586 5.75 13C5.75 13.414 5.414 13.75 5 13.75Z" fill="white"/>
<path d="M13.661 6.10611L11.893 4.33811C11.258 3.70211 10.17 3.68411 9.49805 4.27311V12.7421L13.66 8.58011C13.991 8.24911 14.173 7.81011 14.173 7.34311C14.173 6.87611 13.992 6.43611 13.661 6.10611Z" fill="white"/>
<path d="M14.3533 10.0098L8.36328 15.9998H14.2503C15.2153 15.9998 16.0003 15.2148 16.0003 14.2498V11.7498C16.0003 10.8208 15.2693 10.0648 14.3533 10.0098Z" fill="white"/>
</svg>
