<svg width="18" height="18" viewBox="0 0 18 18" fill="none" xmlns="http://www.w3.org/2000/svg">
<path d="M15.25 17.0002H4.5C3.121 17.0002 2 15.8782 2 14.5002C2 14.0862 2.336 13.7502 2.75 13.7502C3.164 13.7502 3.5 14.0862 3.5 14.5002C3.5 15.0512 3.948 15.5002 4.5 15.5002H14.092C13.815 14.3532 14.075 13.0572 14.653 12.2962C14.903 11.9672 15.373 11.9022 15.704 12.1522C16.034 12.4022 16.099 12.8732 15.849 13.2032C15.411 13.7792 15.323 15.1132 15.845 15.7922C16.02 16.0182 16.05 16.3242 15.924 16.5812C15.798 16.8382 15.537 17.0002 15.251 17.0002H15.25Z" fill="white"/>
<path d="M15.25 1H4.75C3.233 1 2 2.233 2 3.75V14.5C2 14.914 2.336 15.25 2.75 15.25C3.164 15.25 3.5 14.914 3.5 14.5C3.5 13.949 3.948 13.5 4.5 13.5H15.25C15.664 13.5 16 13.164 16 12.75V1.75C16 1.336 15.664 1 15.25 1ZM10 7.756V10C10 10.552 9.552 11 9 11C8.448 11 8 10.552 8 10V7.756C7.262 7.387 6.75 6.632 6.75 5.75C6.75 4.772 7.378 3.948 8.25 3.638V5.5C8.25 5.776 8.474 6 8.75 6H9.25C9.526 6 9.75 5.776 9.75 5.5V3.638C10.622 3.948 11.25 4.772 11.25 5.75C11.25 6.632 10.738 7.387 10 7.756Z" fill="white"/>
</svg>
