<svg width="19" height="19" viewBox="0 0 19 19" fill="none" xmlns="http://www.w3.org/2000/svg">
<mask id="mask0_16_3201" style="mask-type:luminance" maskUnits="userSpaceOnUse" x="0" y="0" width="19" height="19">
<path d="M18.1992 0.654297H0.199219V18.6543H18.1992V0.654297Z" fill="white"/>
</mask>
<g mask="url(#mask0_16_3201)">
<path d="M10.4432 16.9163C9.67622 16.5343 9.19922 15.7623 9.19922 14.9033C9.19922 14.0443 9.67722 13.2723 10.4452 12.8893L11.7722 12.2253L12.4362 10.8963C12.8092 10.1493 13.5812 9.68635 14.4492 9.68635C15.3172 9.68635 16.0892 10.1503 16.4622 10.8963L16.9032 11.7793C17.0912 11.1013 17.1992 10.3893 17.1992 9.65235C17.1992 5.24135 13.6102 1.65234 9.19922 1.65234C4.78822 1.65234 1.19922 5.24235 1.19922 9.65335C1.19922 11.0503 1.57022 12.4313 2.26122 13.6243C2.49922 14.0703 2.16622 15.6263 1.41922 16.3733C1.21022 16.5823 1.14322 16.8953 1.24922 17.1713C1.35422 17.4473 1.61322 17.6363 1.90822 17.6523C1.98722 17.6563 2.06822 17.6583 2.15022 17.6583C3.29522 17.6583 4.68422 17.2513 5.59022 16.7873C6.26522 17.1303 6.98022 17.3743 7.72122 17.5143C8.20522 17.6063 8.70222 17.6523 9.19922 17.6523C9.93622 17.6523 10.6472 17.5443 11.3262 17.3563L10.4432 16.9163Z" fill="#D4D4D4"/>
<path d="M17.7842 14.2325L16.0082 13.3445L15.1202 11.5685C14.8662 11.0605 14.0322 11.0605 13.7782 11.5685L12.8902 13.3445L11.1142 14.2325C10.8592 14.3595 10.6992 14.6195 10.6992 14.9035C10.6992 15.1875 10.8592 15.4475 11.1142 15.5745L12.8902 16.4625L13.7782 18.2385C13.9052 18.4925 14.1652 18.6535 14.4492 18.6535C14.7332 18.6535 14.9932 18.4925 15.1202 18.2385L16.0082 16.4625L17.7842 15.5745C18.0392 15.4475 18.1992 15.1875 18.1992 14.9035C18.1992 14.6195 18.0392 14.3595 17.7842 14.2325Z" fill="#D4D4D4"/>
</g>
</svg>
