<svg width="18" height="18" viewBox="0 0 18 18" fill="none" xmlns="http://www.w3.org/2000/svg">
<path d="M10.213 5.11298L3.713 3.74498C3.048 3.60498 2.361 3.76998 1.833 4.19998C1.304 4.62898 1 5.26598 1 5.94698V13.381C1 14.439 1.752 15.365 2.787 15.583L9.287 16.952C9.442 16.985 9.599 17.001 9.754 17.001C10.264 17.001 10.762 16.827 11.167 16.498C11.696 16.069 12 15.432 12 14.751V7.31498C12 6.25698 11.249 5.33098 10.213 5.11298Z" fill="white"/>
<path d="M15.2124 2.41732L8.71238 1.04832C7.68338 0.833316 6.65038 1.35032 6.20738 2.31132C6.03438 2.68732 6.19938 3.13332 6.57538 3.30632C6.95138 3.47832 7.39638 3.31532 7.57038 2.93832C7.71638 2.61732 8.05738 2.44332 8.40338 2.51632L14.9034 3.88532C15.2484 3.95832 15.4994 4.26632 15.4994 4.61932V12.0533C15.4994 12.2803 15.3974 12.4923 15.2224 12.6363C15.0454 12.7793 14.8184 12.8333 14.5954 12.7873L13.9044 12.6413C13.5044 12.5533 13.1014 12.8143 13.0154 13.2213C12.9304 13.6263 13.1904 14.0243 13.5954 14.1093L14.2864 14.2553C14.4414 14.2883 14.5984 14.3043 14.7534 14.3043C15.2634 14.3043 15.7614 14.1303 16.1664 13.8013C16.6954 13.3723 16.9994 12.7353 16.9994 12.0543V4.61932C16.9994 3.56132 16.2474 2.63532 15.2124 2.41732Z" fill="white"/>
</svg>
