<svg width="17" height="18" viewBox="0 0 17 18" fill="none" xmlns="http://www.w3.org/2000/svg">
<mask id="mask0_1_3315" style="mask-type:luminance" maskUnits="userSpaceOnUse" x="0" y="1" width="17" height="17">
<path d="M16.7852 1.58398H0.785156V17.584H16.7852V1.58398Z" fill="white"/>
</mask>
<g mask="url(#mask0_1_3315)">
<path d="M14.1181 8.21328C13.3136 8.21328 12.6025 7.70128 12.3474 6.93862L12.1083 6.22217L11.3936 5.98306C10.6327 5.7315 10.1181 5.0195 10.1181 4.21239C10.1181 3.90484 10.2123 3.62128 10.3474 3.36084H5.00694C3.6585 3.36084 2.5625 4.45684 2.5625 5.80528V13.3617C2.5625 14.7101 3.6585 15.8061 5.00694 15.8061H12.5625C13.9109 15.8061 15.0069 14.7101 15.0069 13.3617V7.9635C14.7376 8.11195 14.4398 8.21328 14.1181 8.21328ZM10.2585 8.6595L9.13583 9.03639L8.76161 10.1671C8.70028 10.3493 8.5305 10.4728 8.33939 10.4728C8.14828 10.4728 7.97761 10.3493 7.91717 10.1671L7.54294 9.03639L6.42028 8.6595C6.23894 8.59906 6.11628 8.4275 6.11628 8.2355C6.11628 8.0435 6.23894 7.87195 6.42028 7.8115L7.54294 7.43461L7.91717 6.30395C8.03894 5.93861 8.63894 5.93861 8.76072 6.30395L9.13494 7.43461L10.2576 7.8115C10.4389 7.87284 10.5616 8.0435 10.5616 8.2355C10.5616 8.4275 10.4398 8.59906 10.2585 8.6595ZM11.2292 12.2506C10.8612 12.2506 10.5625 11.9519 10.5625 11.5839C10.5625 11.2159 10.8612 10.9173 11.2292 10.9173C11.5972 10.9173 11.8958 11.2159 11.8958 11.5839C11.8958 11.9519 11.5972 12.2506 11.2292 12.2506Z" fill="white"/>
<path d="M16.4192 3.7066L15.0725 3.25683L14.6236 1.91016C14.4778 1.47461 13.7569 1.47461 13.6112 1.91016L13.1623 3.25683L11.8156 3.7066C11.5978 3.7786 11.4512 3.98305 11.4512 4.21238C11.4512 4.44172 11.5978 4.64616 11.8156 4.71816L13.1623 5.16794L13.6112 6.5146C13.6841 6.73238 13.8885 6.87905 14.1178 6.87905C14.3472 6.87905 14.5507 6.73238 14.6245 6.5146L15.0734 5.16794L16.4201 4.71816C16.6378 4.64616 16.7845 4.44172 16.7845 4.21238C16.7845 3.98305 16.637 3.77949 16.4192 3.7066Z" fill="white"/>
</g>
</svg>
