<svg width="19" height="19" viewBox="0 0 19 19" fill="none" xmlns="http://www.w3.org/2000/svg">
<path d="M13.3301 2.6543H4.83008C3.31348 2.6543 2.08008 3.8877 2.08008 5.4043V13.9043C2.08008 15.4209 3.31348 16.6543 4.83008 16.6543H13.3301C14.8467 16.6543 16.0801 15.4209 16.0801 13.9043V5.4043C16.0801 3.8877 14.8467 2.6543 13.3301 2.6543ZM6.08008 5.6543C6.63238 5.6543 7.08008 6.1021 7.08008 6.6543C7.08008 7.2065 6.63238 7.6543 6.08008 7.6543C5.52778 7.6543 5.08008 7.2065 5.08008 6.6543C5.08008 6.1021 5.52788 5.6543 6.08008 5.6543ZM9.33008 13.6543H5.83008C5.41598 13.6543 5.08008 13.3184 5.08008 12.9043C5.08008 12.4902 5.41598 12.1543 5.83008 12.1543H9.33008C9.74418 12.1543 10.0801 12.4902 10.0801 12.9043C10.0801 13.3184 9.74418 13.6543 9.33008 13.6543ZM12.3301 10.6543H5.83008C5.41598 10.6543 5.08008 10.3184 5.08008 9.9043C5.08008 9.4902 5.41598 9.1543 5.83008 9.1543H12.3301C12.7442 9.1543 13.0801 9.4902 13.0801 9.9043C13.0801 10.3184 12.7442 10.6543 12.3301 10.6543Z" fill="#D4D4D4"/>
</svg>
