<svg width="18" height="19" viewBox="0 0 18 19" fill="none" xmlns="http://www.w3.org/2000/svg">
<path d="M16.1558 3.55782C15.4078 3.11682 14.1908 2.59082 12.6358 2.59082H12.6338C11.0318 2.59082 9.78277 3.14782 9.00977 3.62082C8.23677 3.14782 6.98777 2.59082 5.38677 2.59082H5.38477C3.82977 2.59082 2.61277 3.11682 1.86477 3.55782C1.32877 3.87282 1.00977 4.43482 1.00977 5.05882V14.1498C1.00977 14.7308 1.29677 15.2729 1.77577 15.5999C2.24877 15.9219 2.84677 15.9899 3.37877 15.7809C4.02177 15.5279 4.69277 15.3989 5.37577 15.3979H5.38377C6.59577 15.3979 7.55177 15.8019 8.14077 16.1419C8.17877 16.1639 8.22077 16.1729 8.25977 16.1919V6.52282C8.25977 6.10882 8.59577 5.77282 9.00977 5.77282C9.42377 5.77282 9.75977 6.10882 9.75977 6.52282V16.1919C9.79877 16.1729 9.84077 16.1639 9.87877 16.1419C10.4678 15.8029 11.4228 15.3979 12.6358 15.3979H12.6428C13.3258 15.3979 13.9968 15.5279 14.6408 15.7809C15.1698 15.9889 15.7678 15.9209 16.2418 15.5989C16.7228 15.2709 17.0098 14.7279 17.0098 14.1459V5.06382C17.0098 4.44582 16.6818 3.86882 16.1558 3.55782Z" fill="white"/>
</svg>
